<svg width="314" height="240" xmlns="http://www.w3.org/2000/svg" xmlns:xlink="http://www.w3.org/1999/xlink" xmlns:svgjs="http://svgjs.com/svgjs" viewBox="1292 1535 314 240"><svg width="314" height="0" xmlns="http://www.w3.org/2000/svg" xmlns:xlink="http://www.w3.org/1999/xlink" xmlns:svgjs="http://svgjs.com/svgjs" fill="#fff" x="1292" y="1775"><svg xmlns="http://www.w3.org/2000/svg" xmlns:xlink="http://www.w3.org/1999/xlink" width="314" height="0"><path paint-order="stroke fill markers" fill-rule="evenodd" d="M314 0H0h314z"/></svg></svg><svg width="225" height="162" xmlns="http://www.w3.org/2000/svg" xmlns:xlink="http://www.w3.org/1999/xlink" xmlns:svgjs="http://svgjs.com/svgjs" viewBox="1338 1535 225 162" x="1338" y="1535"><svg width="95" height="162" xmlns="http://www.w3.org/2000/svg" xmlns:xlink="http://www.w3.org/1999/xlink" xmlns:svgjs="http://svgjs.com/svgjs" viewBox="0.369 0 94.263 162" fill="none" stroke-miterlimit="100" stroke-linecap="round" stroke="rgba(71,71,71,0.3)" stroke-width="6" x="1453" y="1535"><svg xmlns="http://www.w3.org/2000/svg" xmlns:xlink="http://www.w3.org/1999/xlink" width="95" height="162" viewBox="0.773 0.418 93.509 160.705"><path paint-order="stroke fill markers" d="M94.282.418v143.466c0 9.515-3.894 17.239-8.73 17.239H9.503c-4.804 0-8.73-7.724-8.73-17.239V31.19L94.283.418"/></svg></svg><svg width="208" height="0" xmlns="http://www.w3.org/2000/svg" xmlns:xlink="http://www.w3.org/1999/xlink" xmlns:svgjs="http://svgjs.com/svgjs" fill="none" stroke-miterlimit="100" stroke-linecap="round" stroke="rgba(71,71,71,0.3)" stroke-width="6" x="1355" y="1696"><svg xmlns="http://www.w3.org/2000/svg" xmlns:xlink="http://www.w3.org/1999/xlink" width="208" height="0"><path paint-order="stroke fill markers" d="M.742.092h0"/></svg></svg><svg width="94" height="0" xmlns="http://www.w3.org/2000/svg" xmlns:xlink="http://www.w3.org/1999/xlink" xmlns:svgjs="http://svgjs.com/svgjs" fill="none" stroke-miterlimit="100" stroke-linecap="round" stroke="rgba(71,71,71,0.3)" stroke-width="6" x="1453" y="1603"><svg xmlns="http://www.w3.org/2000/svg" xmlns:xlink="http://www.w3.org/1999/xlink" width="94" height="0"><path paint-order="stroke fill markers" d="M.773.556H.772"/></svg></svg><svg width="94" height="0" xmlns="http://www.w3.org/2000/svg" xmlns:xlink="http://www.w3.org/1999/xlink" xmlns:svgjs="http://svgjs.com/svgjs" fill="none" stroke-miterlimit="100" stroke-linecap="round" stroke="rgba(71,71,71,0.3)" stroke-width="6" x="1453" y="1670"><svg xmlns="http://www.w3.org/2000/svg" xmlns:xlink="http://www.w3.org/1999/xlink" width="94" height="0"><path paint-order="stroke fill markers" d="M.773.406H.772"/></svg></svg><svg width="14" height="57" xmlns="http://www.w3.org/2000/svg" xmlns:xlink="http://www.w3.org/1999/xlink" xmlns:svgjs="http://svgjs.com/svgjs" viewBox="0.259 0 13.481 57" fill="none" stroke-miterlimit="100" stroke-linecap="round" stroke="rgba(71,71,71,0.3)" stroke-width="6" x="1527" y="1610"><svg xmlns="http://www.w3.org/2000/svg" xmlns:xlink="http://www.w3.org/1999/xlink" width="14" height="57" viewBox="0.155 0.275 13.219 55.892"><path paint-order="stroke fill markers" d="M9.951 56.167H3.577a3.43 3.43 0 0 1-3.422-3.422V3.698A3.43 3.43 0 0 1 3.577.275h6.374a3.43 3.43 0 0 1 3.423 3.423v49.047a3.43 3.43 0 0 1-3.423 3.422z"/></svg></svg><svg width="14" height="57" xmlns="http://www.w3.org/2000/svg" xmlns:xlink="http://www.w3.org/1999/xlink" xmlns:svgjs="http://svgjs.com/svgjs" viewBox="0.259 0 13.481 57" fill="none" stroke-miterlimit="100" stroke-linecap="round" stroke="rgba(71,71,71,0.3)" stroke-width="6" x="1508" y="1610"><svg xmlns="http://www.w3.org/2000/svg" xmlns:xlink="http://www.w3.org/1999/xlink" width="14" height="57" viewBox="0.597 0.275 13.219 55.892"><path paint-order="stroke fill markers" d="M10.394 56.167H4.02a3.43 3.43 0 0 1-3.423-3.422V3.698A3.43 3.43 0 0 1 4.02.275h6.374a3.43 3.43 0 0 1 3.423 3.423v49.047a3.41 3.41 0 0 1-3.423 3.422z"/></svg></svg><svg width="14" height="57" xmlns="http://www.w3.org/2000/svg" xmlns:xlink="http://www.w3.org/1999/xlink" xmlns:svgjs="http://svgjs.com/svgjs" viewBox="0.259 0 13.481 57" fill="none" stroke-miterlimit="100" stroke-linecap="round" stroke="rgba(71,71,71,0.3)" stroke-width="6" x="1527" y="1543"><svg xmlns="http://www.w3.org/2000/svg" xmlns:xlink="http://www.w3.org/1999/xlink" width="14" height="57" viewBox="0.155 0.393 13.219 55.892"><path paint-order="stroke fill markers" d="M9.951 56.285H3.577a3.43 3.43 0 0 1-3.422-3.422V3.816A3.43 3.43 0 0 1 3.577.393h6.374a3.43 3.43 0 0 1 3.423 3.423v49.047a3.43 3.43 0 0 1-3.423 3.422z"/></svg></svg><svg width="57" height="14" xmlns="http://www.w3.org/2000/svg" xmlns:xlink="http://www.w3.org/1999/xlink" xmlns:svgjs="http://svgjs.com/svgjs" viewBox="0 0.259 57 13.482" fill="none" stroke-miterlimit="100" stroke-linecap="round" stroke="rgba(71,71,71,0.3)" stroke-width="6" x="1466" y="1586"><svg xmlns="http://www.w3.org/2000/svg" xmlns:xlink="http://www.w3.org/1999/xlink" width="57" height="14" viewBox="0.584 0.035 55.892 13.22"><path paint-order="stroke fill markers" d="M56.476 3.457v6.374a3.43 3.43 0 0 1-3.423 3.423H4.007A3.43 3.43 0 0 1 .584 9.831V3.457A3.43 3.43 0 0 1 4.007.035h49.046a3.43 3.43 0 0 1 3.423 3.422z"/></svg></svg><svg width="54" height="12" xmlns="http://www.w3.org/2000/svg" xmlns:xlink="http://www.w3.org/1999/xlink" xmlns:svgjs="http://svgjs.com/svgjs" viewBox="0 0.369 54 11.262" fill="none" stroke-miterlimit="100" stroke-linecap="round" stroke="rgba(71,71,71,0.3)" stroke-width="6" x="1469" y="1571"><svg xmlns="http://www.w3.org/2000/svg" xmlns:xlink="http://www.w3.org/1999/xlink" width="54" height="12" viewBox="0.63 0.339 52.846 11.021"><path paint-order="stroke fill markers" d="M53.476 3.762v4.176a3.43 3.43 0 0 1-3.423 3.423h-46A3.43 3.43 0 0 1 .63 7.938V3.762A3.43 3.43 0 0 1 4.052.339h46.001a3.43 3.43 0 0 1 3.423 3.423z"/></svg></svg><svg width="26" height="46" xmlns="http://www.w3.org/2000/svg" xmlns:xlink="http://www.w3.org/1999/xlink" xmlns:svgjs="http://svgjs.com/svgjs" viewBox="0.154 0 25.692 46" fill="none" stroke-miterlimit="100" stroke-linecap="round" stroke="rgba(71,71,71,0.3)" stroke-width="6" x="1478" y="1620"><svg xmlns="http://www.w3.org/2000/svg" xmlns:xlink="http://www.w3.org/1999/xlink" width="26" height="46" viewBox="0.683 0.867 24.912 44.604"><path paint-order="stroke fill markers" d="M6.482 45.288l-4.333-1.821C.956 42.964.359 41.583.86 40.39L16.718 2.333c.503-1.193 1.884-1.79 3.078-1.287l4.333 1.821c1.193.502 1.79 1.884 1.287 3.077L9.56 44.001a2.343 2.343 0 0 1-3.077 1.287z"/></svg></svg><svg width="26" height="13" xmlns="http://www.w3.org/2000/svg" xmlns:xlink="http://www.w3.org/1999/xlink" xmlns:svgjs="http://svgjs.com/svgjs" viewBox="0 0.156 26 12.688" fill="none" stroke-miterlimit="100" stroke-linecap="round" stroke="rgba(71,71,71,0.3)" stroke-width="6" x="1338" y="1605"><svg xmlns="http://www.w3.org/2000/svg" xmlns:xlink="http://www.w3.org/1999/xlink" width="26" height="13" viewBox="0.284 0.66 24.9 12.152"><path paint-order="stroke fill markers" d="M.284.66h24.9V12.81H.284V.66"/></svg></svg><svg width="25" height="0" xmlns="http://www.w3.org/2000/svg" xmlns:xlink="http://www.w3.org/1999/xlink" xmlns:svgjs="http://svgjs.com/svgjs" fill="none" stroke-miterlimit="100" stroke-linecap="round" stroke="rgba(71,71,71,0.3)" stroke-width="6" x="1363" y="1617"><svg xmlns="http://www.w3.org/2000/svg" xmlns:xlink="http://www.w3.org/1999/xlink" width="25" height="0"><path paint-order="stroke fill markers" d="M25.115.811H.184h24.931"/></svg></svg><svg width="10" height="0" xmlns="http://www.w3.org/2000/svg" xmlns:xlink="http://www.w3.org/1999/xlink" xmlns:svgjs="http://svgjs.com/svgjs" fill="none" stroke-miterlimit="100" stroke-linecap="round" stroke="rgba(71,71,71,0.3)" stroke-width="6" x="1363" y="1605"><svg xmlns="http://www.w3.org/2000/svg" xmlns:xlink="http://www.w3.org/1999/xlink" width="10" height="0"><path paint-order="stroke fill markers" d="M.184.66h0"/></svg></svg><svg width="26" height="13" xmlns="http://www.w3.org/2000/svg" xmlns:xlink="http://www.w3.org/1999/xlink" xmlns:svgjs="http://svgjs.com/svgjs" viewBox="0 0.156 26 12.688" fill="none" stroke-miterlimit="100" stroke-linecap="round" stroke="rgba(71,71,71,0.3)" stroke-width="6" x="1350" y="1617"><svg xmlns="http://www.w3.org/2000/svg" xmlns:xlink="http://www.w3.org/1999/xlink" width="26" height="13" viewBox="0.718 0.811 24.9 12.152"><path paint-order="stroke fill markers" d="M.718.811h24.9v12.152H.718V.811z"/></svg></svg><svg width="22" height="13" xmlns="http://www.w3.org/2000/svg" xmlns:xlink="http://www.w3.org/1999/xlink" xmlns:svgjs="http://svgjs.com/svgjs" viewBox="0 0.163 22 12.675" fill="none" stroke-miterlimit="100" stroke-linecap="round" stroke="rgba(71,71,71,0.3)" stroke-width="6" x="1342" y="1630"><svg xmlns="http://www.w3.org/2000/svg" xmlns:xlink="http://www.w3.org/1999/xlink" width="22" height="13" viewBox="0.146 0.026 21.038 12.12"><path paint-order="stroke fill markers" d="M.146.026h21.038v12.12h-8.07L.146.026"/></svg></svg><svg width="26" height="13" xmlns="http://www.w3.org/2000/svg" xmlns:xlink="http://www.w3.org/1999/xlink" xmlns:svgjs="http://svgjs.com/svgjs" viewBox="0 0.156 26 12.689" fill="none" stroke-miterlimit="100" stroke-linecap="round" stroke="rgba(71,71,71,0.3)" stroke-width="6" x="1363" y="1630"><svg xmlns="http://www.w3.org/2000/svg" xmlns:xlink="http://www.w3.org/1999/xlink" width="26" height="13" viewBox="0.184 0.026 24.9 12.152"><path paint-order="stroke fill markers" d="M.184.026h24.9v12.152H.184V.026z"/></svg></svg><svg width="40" height="32" xmlns="http://www.w3.org/2000/svg" xmlns:xlink="http://www.w3.org/1999/xlink" xmlns:svgjs="http://svgjs.com/svgjs" viewBox="0.265 0 39.471 32" fill="none" stroke-miterlimit="100" stroke-linecap="round" stroke="rgba(71,71,71,0.3)" stroke-width="6" x="1389" y="1560"><svg xmlns="http://www.w3.org/2000/svg" xmlns:xlink="http://www.w3.org/1999/xlink" width="40" height="32" viewBox="0.842 0.161 38.653 31.337"><path paint-order="stroke fill markers" d="M.842.16h38.654v31.338H.842V.161z"/></svg></svg><svg width="15" height="12" xmlns="http://www.w3.org/2000/svg" xmlns:xlink="http://www.w3.org/1999/xlink" xmlns:svgjs="http://svgjs.com/svgjs" viewBox="0 0.657 15 10.686" fill="none" stroke-miterlimit="100" stroke-linecap="round" stroke="rgba(71,71,71,0.3)" stroke-width="6" x="1395" y="1573"><svg xmlns="http://www.w3.org/2000/svg" xmlns:xlink="http://www.w3.org/1999/xlink" width="15" height="12" viewBox="0.18 0.977 14.413 10.268"><path paint-order="stroke fill markers" d="M.18 11.245L7.277.977l7.316 9.074L.18 11.245"/></svg></svg><svg width="18" height="15" xmlns="http://www.w3.org/2000/svg" xmlns:xlink="http://www.w3.org/1999/xlink" xmlns:svgjs="http://svgjs.com/svgjs" viewBox="0.017 0 17.967 15" fill="none" stroke-miterlimit="100" stroke-linecap="round" stroke="rgba(71,71,71,0.3)" stroke-width="6" x="1406" y="1570"><svg xmlns="http://www.w3.org/2000/svg" xmlns:xlink="http://www.w3.org/1999/xlink" width="18" height="15" viewBox="0.893 0.115 16.925 14.13"><path paint-order="stroke fill markers" d="M.893 9.723l9.89-9.608 7.034 14.13L.893 9.723"/></svg></svg><svg width="8" height="4" xmlns="http://www.w3.org/2000/svg" xmlns:xlink="http://www.w3.org/1999/xlink" xmlns:svgjs="http://svgjs.com/svgjs" viewBox="0 0.486 8 3.028" fill="none" stroke-miterlimit="100" stroke-linecap="round" stroke="rgba(71,71,71,0.3)" stroke-width="6" x="1404" y="1573"><svg xmlns="http://www.w3.org/2000/svg" xmlns:xlink="http://www.w3.org/1999/xlink" width="8" height="4" viewBox="0.318 0.977 6.72 2.543"><path paint-order="stroke fill markers" d="M.318 3.52C.82 2.046 2.202.978 3.835.978c1.35 0 2.543.722 3.202 1.821l-6.72.723"/></svg></svg></svg><svg width="144" height="123" xmlns="http://www.w3.org/2000/svg" xmlns:xlink="http://www.w3.org/1999/xlink" xmlns:svgjs="http://svgjs.com/svgjs" viewBox="1377 1574 144 123" x="1377" y="1574"><svg width="52" height="29" xmlns="http://www.w3.org/2000/svg" xmlns:xlink="http://www.w3.org/1999/xlink" xmlns:svgjs="http://svgjs.com/svgjs" viewBox="0 0.247 52 28.507" fill="#d2dde1" x="1434" y="1628"><svg xmlns="http://www.w3.org/2000/svg" xmlns:xlink="http://www.w3.org/1999/xlink" width="52" height="29" viewBox="0.336 0.039 51.622 28.3"><path paint-order="stroke fill markers" fill-rule="evenodd" d="M6.334 28.34l1.381-2.827 3.014.848 1.382-2.826 3.046.848 1.382-2.826 3.045.848 1.382-2.826 3.046.847 1.381-2.825 3.046.847 1.382-2.826 3.046.848 1.381-2.826 3.046.848 1.382-2.826 3.045.848 1.382-2.826 3.046.847L47.53 7.71l3.046.847 1.382-2.826-1.821-2.449A7.965 7.965 0 0 0 40.465.74L.336 18.825l5.998 9.514z"/></svg></svg><svg width="52" height="29" xmlns="http://www.w3.org/2000/svg" xmlns:xlink="http://www.w3.org/1999/xlink" xmlns:svgjs="http://svgjs.com/svgjs" viewBox="0 0.247 52 28.507" fill="none" stroke-miterlimit="100" stroke-linecap="round" stroke="rgba(71,71,71,0.3)" x="1434" y="1628"><svg xmlns="http://www.w3.org/2000/svg" xmlns:xlink="http://www.w3.org/1999/xlink" width="52" height="29" viewBox="0.336 0.039 51.622 28.3"><path paint-order="stroke fill markers" d="M6.334 28.34l1.381-2.827 3.014.848 1.382-2.826 3.046.848 1.382-2.826 3.045.848 1.382-2.826 3.046.847 1.381-2.825 3.046.847 1.382-2.826 3.046.848 1.381-2.826 3.046.848 1.382-2.826 3.045.848 1.382-2.826 3.046.847L47.53 7.71l3.046.847 1.382-2.826-1.821-2.449A7.965 7.965 0 0 0 40.465.74L.336 18.825l5.998 9.514z"/></svg></svg><svg width="44" height="98" xmlns="http://www.w3.org/2000/svg" xmlns:xlink="http://www.w3.org/1999/xlink" xmlns:svgjs="http://svgjs.com/svgjs" viewBox="0.37 0 43.26 98" fill="#baced3" x="1377" y="1574"><svg xmlns="http://www.w3.org/2000/svg" xmlns:xlink="http://www.w3.org/1999/xlink" width="44" height="98" viewBox="0.753 0.668 42.955 97.309"><path paint-order="stroke fill markers" fill-rule="evenodd" d="M43.709 93.266l-23.456 4.71L.753.668C13.91 4.248 24.115 14.61 27.57 27.798l16.14 65.468z"/></svg></svg><svg width="35" height="80" xmlns="http://www.w3.org/2000/svg" xmlns:xlink="http://www.w3.org/1999/xlink" xmlns:svgjs="http://svgjs.com/svgjs" viewBox="0 0.424 35 79.152" fill="#d2dde1" x="1409" y="1591"><svg xmlns="http://www.w3.org/2000/svg" xmlns:xlink="http://www.w3.org/1999/xlink" width="35" height="80" viewBox="0.153 0.655 34.823 78.751"><path paint-order="stroke fill markers" fill-rule="evenodd" d="M23.955 52.654c-3.517 3.328-6.563 1.287-6.5-1.507.125-4.49 2.48-9.2 4.992-12.78 1.476-2.135 5.276-5.966 7.38-4.302l5.149-22.67L26.749.654 25.242 3.23a169.178 169.178 0 0 0-9.608 19.248c-2.826 6.657-5.119 13.502-7.003 20.504L.153 74.633l14.821 4.773s4.899-5.243 6.343-8.51c3.956-8.98 5.872-17.05 5.872-17.05l-3.234-1.192z"/></svg></svg><svg width="35" height="80" xmlns="http://www.w3.org/2000/svg" xmlns:xlink="http://www.w3.org/1999/xlink" xmlns:svgjs="http://svgjs.com/svgjs" viewBox="0 0.424 35 79.152" fill="none" stroke-miterlimit="100" stroke-linecap="round" stroke="rgba(71,71,71,0.3)" x="1409" y="1591"><svg xmlns="http://www.w3.org/2000/svg" xmlns:xlink="http://www.w3.org/1999/xlink" width="35" height="80" viewBox="0.153 0.655 34.823 78.751"><path paint-order="stroke fill markers" d="M23.955 52.654c-3.517 3.328-6.563 1.287-6.5-1.507.125-4.49 2.48-9.2 4.992-12.78 1.476-2.135 5.056-5.119 7.38-4.302l5.149-22.67L26.749.654 25.242 3.23a169.178 169.178 0 0 0-9.608 19.248c-2.826 6.657-5.119 13.502-7.003 20.504L.153 74.633l14.821 4.773s4.899-5.243 6.343-8.51c3.956-8.98 5.872-17.05 5.872-17.05l-3.234-1.192z"/></svg></svg><svg width="37" height="94" xmlns="http://www.w3.org/2000/svg" xmlns:xlink="http://www.w3.org/1999/xlink" xmlns:svgjs="http://svgjs.com/svgjs" viewBox="0.232 0 36.536 94" fill="#e7eff1" x="1384" y="1577"><svg xmlns="http://www.w3.org/2000/svg" xmlns:xlink="http://www.w3.org/1999/xlink" width="37" height="94" viewBox="0.442 0.18 36.236 93.227"><path paint-order="stroke fill markers" fill-rule="evenodd" d="M.442.18l20.63 93.226 15.605-3.14-16.14-65.5C17.744 13.933 10.302 5.016.443.18z"/></svg></svg><svg width="44" height="98" xmlns="http://www.w3.org/2000/svg" xmlns:xlink="http://www.w3.org/1999/xlink" xmlns:svgjs="http://svgjs.com/svgjs" viewBox="0.37 0 43.26 98" fill="none" stroke-miterlimit="100" stroke-linecap="round" stroke="rgba(71,71,71,0.3)" x="1377" y="1574"><svg xmlns="http://www.w3.org/2000/svg" xmlns:xlink="http://www.w3.org/1999/xlink" width="44" height="98" viewBox="0.753 0.668 42.955 97.309"><path paint-order="stroke fill markers" d="M43.709 93.266l-23.456 4.71L.753.668s0 0 0 0C13.91 4.248 24.115 14.61 27.57 27.798l16.14 65.468z"/></svg></svg><svg width="45" height="54" xmlns="http://www.w3.org/2000/svg" xmlns:xlink="http://www.w3.org/1999/xlink" xmlns:svgjs="http://svgjs.com/svgjs" viewBox="0.235 0 44.53 54" fill="#bcc6c9" x="1420" y="1605"><svg xmlns="http://www.w3.org/2000/svg" xmlns:xlink="http://www.w3.org/1999/xlink" width="45" height="54" viewBox="0.708 0.408 43.863 53.191"><path paint-order="stroke fill markers" fill-rule="evenodd" d="M11.981 44.965l4.49-.157c.942-.032 1.539-.722 1.413-1.664l-.628-4.459 4.49-.157c.943-.032 1.54-.722 1.413-1.664l-.627-4.459 4.49-.157c.942-.032 1.538-.722 1.413-1.664l-.628-4.459 4.49-.157c.942-.031 1.538-.722 1.413-1.664l-.628-4.459 4.49-.157c.942-.032 1.539-.722 1.413-1.664l-.628-4.459 4.899-.47c1.067-.095 1.6-1.068 1.161-2.168L40.21.408l-1.13 8.416-4.334.157c-1.036.03-1.696.816-1.538 1.82l.596 4.303-4.333.157c-1.036.03-1.696.816-1.539 1.82l.597 4.303-4.333.157c-1.037.03-1.696.816-1.539 1.82l.597 4.303-4.334.157c-1.036.03-1.695.816-1.538 1.82l.597 4.303-4.334.157c-1.036.03-1.695.816-1.538 1.82l.596 4.303-6.123.22-5.872 7.002L8.056 53.6l3.925-8.635z"/></svg></svg><svg width="45" height="54" xmlns="http://www.w3.org/2000/svg" xmlns:xlink="http://www.w3.org/1999/xlink" xmlns:svgjs="http://svgjs.com/svgjs" viewBox="0.235 0 44.53 54" fill="none" stroke-miterlimit="100" stroke-linecap="round" stroke="rgba(71,71,71,0.3)" x="1420" y="1605"><svg xmlns="http://www.w3.org/2000/svg" xmlns:xlink="http://www.w3.org/1999/xlink" width="45" height="54" viewBox="0.708 0.408 43.863 53.191"><path paint-order="stroke fill markers" d="M11.981 44.965l4.49-.157c.942-.032 1.539-.722 1.413-1.664l-.628-4.459 4.49-.157c.943-.032 1.54-.722 1.413-1.664l-.627-4.459 4.49-.157c.942-.032 1.538-.722 1.413-1.664l-.628-4.459 4.49-.157c.942-.031 1.538-.722 1.413-1.664l-.628-4.459 4.49-.157c.942-.032 1.539-.722 1.413-1.664l-.628-4.459 4.899-.47c1.067-.095 1.6-1.068 1.161-2.168L40.21.408l-1.13 8.416-4.334.157c-1.036.03-1.696.816-1.538 1.82l.596 4.303-4.333.157c-1.036.03-1.696.816-1.539 1.82l.597 4.303-4.333.157c-1.037.03-1.696.816-1.539 1.82l.597 4.303-4.334.157c-1.036.03-1.695.816-1.538 1.82l.597 4.303-4.334.157c-1.036.03-1.695.816-1.538 1.82l.596 4.303-6.123.22-5.872 7.002L8.056 53.6l3.925-8.635z"/></svg></svg><svg width="127" height="45" xmlns="http://www.w3.org/2000/svg" xmlns:xlink="http://www.w3.org/1999/xlink" xmlns:svgjs="http://svgjs.com/svgjs" viewBox="0 0.275 127 44.45" fill="#9acf8d" x="1394" y="1652"><svg xmlns="http://www.w3.org/2000/svg" xmlns:xlink="http://www.w3.org/1999/xlink" width="127" height="45" viewBox="0.647 0.132 125.6 43.96"><path paint-order="stroke fill markers" fill-rule="evenodd" d="M104.267 44.092h-81.64c-12.152 0-21.98-9.829-21.98-21.98C.647 9.96 10.475.132 22.627.132h81.64c12.151 0 21.98 9.828 21.98 21.98 0 12.151-9.829 21.98-21.98 21.98z"/></svg></svg><svg width="127" height="26" xmlns="http://www.w3.org/2000/svg" xmlns:xlink="http://www.w3.org/1999/xlink" xmlns:svgjs="http://svgjs.com/svgjs" viewBox="0 0.617 127 24.765" fill="#85b578" x="1394" y="1671"><svg xmlns="http://www.w3.org/2000/svg" xmlns:xlink="http://www.w3.org/1999/xlink" width="127" height="26" viewBox="0.647 0.6 125.6 24.492"><path paint-order="stroke fill markers" fill-rule="evenodd" d="M104.267 20.068h-81.64C11.354 20.068 2.06 11.558.804.6a21.998 21.998 0 0 0-.157 2.512c0 12.152 9.828 21.98 21.98 21.98h81.64c12.151 0 21.98-9.828 21.98-21.98 0-.848-.063-1.696-.157-2.512-1.225 10.958-10.52 19.468-21.823 19.468z"/></svg></svg><svg width="127" height="25" xmlns="http://www.w3.org/2000/svg" xmlns:xlink="http://www.w3.org/1999/xlink" xmlns:svgjs="http://svgjs.com/svgjs" viewBox="0 0.197 127 24.606" fill="#bfe8b3" x="1394" y="1652"><svg xmlns="http://www.w3.org/2000/svg" xmlns:xlink="http://www.w3.org/1999/xlink" width="127" height="25" viewBox="0.647 0.132 125.6 24.335"><path paint-order="stroke fill markers" fill-rule="evenodd" d="M104.267.132h-81.64C10.475.132.647 9.96.647 22.112c0 .785.031 1.601.125 2.355C1.965 13.445 11.292 4.842 22.627 4.842h81.64c11.335 0 20.66 8.603 21.854 19.625.094-.785.126-1.57.126-2.355 0-12.12-9.829-21.98-21.98-21.98z"/></svg></svg><svg width="127" height="45" xmlns="http://www.w3.org/2000/svg" xmlns:xlink="http://www.w3.org/1999/xlink" xmlns:svgjs="http://svgjs.com/svgjs" viewBox="0 0.275 127 44.45" fill="none" stroke-miterlimit="100" stroke-linecap="round" stroke="rgba(71,71,71,0.3)" x="1394" y="1652"><svg xmlns="http://www.w3.org/2000/svg" xmlns:xlink="http://www.w3.org/1999/xlink" width="127" height="45" viewBox="0.647 0.132 125.6 43.96"><path paint-order="stroke fill markers" d="M104.267 44.092h-81.64c-12.152 0-21.98-9.829-21.98-21.98 0 0 0 0 0 0C.647 9.96 10.475.132 22.627.132h81.64c12.151 0 21.98 9.828 21.98 21.98 0 0 0 0 0 0 0 12.151-9.829 21.98-21.98 21.98z"/></svg></svg><svg width="11" height="3" xmlns="http://www.w3.org/2000/svg" xmlns:xlink="http://www.w3.org/1999/xlink" xmlns:svgjs="http://svgjs.com/svgjs" viewBox="0.064 0 10.872 3" fill="none" stroke-miterlimit="100" stroke-linecap="round" stroke="rgba(71,71,71,0.3)" stroke-width="3" x="1403" y="1647"><svg xmlns="http://www.w3.org/2000/svg" xmlns:xlink="http://www.w3.org/1999/xlink" width="11" height="3" viewBox="0.721 0.265 9.671 2.669"><path paint-order="stroke fill markers" d="M.721 2.933L10.392.265.722 2.933"/></svg></svg><svg width="16" height="17" xmlns="http://www.w3.org/2000/svg" xmlns:xlink="http://www.w3.org/1999/xlink" xmlns:svgjs="http://svgjs.com/svgjs" viewBox="0 0.5 16 16" fill="#d2dde1" x="1410" y="1666"><svg xmlns="http://www.w3.org/2000/svg" xmlns:xlink="http://www.w3.org/1999/xlink" width="16" height="17" viewBox="0.064 0.199 15.826 15.826"><path paint-order="stroke fill markers" fill-rule="evenodd" d="M7.977 16.024A7.905 7.905 0 0 1 .064 8.112 7.906 7.906 0 0 1 7.977.199a7.906 7.906 0 0 1 7.913 7.913 7.905 7.905 0 0 1-7.913 7.912z"/></svg></svg><svg width="8" height="20" xmlns="http://www.w3.org/2000/svg" xmlns:xlink="http://www.w3.org/1999/xlink" xmlns:svgjs="http://svgjs.com/svgjs" viewBox="0.49 0 7.021 20" fill="none" stroke-miterlimit="100" stroke-linecap="round" stroke="rgba(71,71,71,0.3)" stroke-width="6" opacity=".2" x="1404" y="1666"><svg xmlns="http://www.w3.org/2000/svg" xmlns:xlink="http://www.w3.org/1999/xlink" width="8" height="20" viewBox="0.726 0.199 6.845 19.499"><path paint-order="stroke fill markers" d="M7.571 19.698C3.49 17.438.726 13.104.726 8.112c0-2.952.973-5.684 2.638-7.913L7.57 19.698"/></svg></svg><svg width="16" height="17" xmlns="http://www.w3.org/2000/svg" xmlns:xlink="http://www.w3.org/1999/xlink" xmlns:svgjs="http://svgjs.com/svgjs" viewBox="0 0.5 16 16" fill="none" stroke-miterlimit="100" stroke-linecap="round" stroke="rgba(71,71,71,0.3)" x="1410" y="1666"><svg xmlns="http://www.w3.org/2000/svg" xmlns:xlink="http://www.w3.org/1999/xlink" width="16" height="17" viewBox="0.064 0.199 15.826 15.826"><path paint-order="stroke fill markers" d="M7.977 16.024A7.905 7.905 0 0 1 .064 8.112 7.906 7.906 0 0 1 7.977.199a7.906 7.906 0 0 1 7.913 7.913 7.905 7.905 0 0 1-7.913 7.912z"/></svg></svg><svg width="7" height="20" xmlns="http://www.w3.org/2000/svg" xmlns:xlink="http://www.w3.org/1999/xlink" xmlns:svgjs="http://svgjs.com/svgjs" viewBox="0.233 0 6.533 20" fill="none" stroke-miterlimit="100" stroke-linecap="round" stroke="rgba(71,71,71,0.3)" stroke-width="3" x="1422" y="1614"><svg xmlns="http://www.w3.org/2000/svg" xmlns:xlink="http://www.w3.org/1999/xlink" width="7" height="20" viewBox="0.718 0.483 6.154 18.84"><path paint-order="stroke fill markers" d="M6.873.483S2.068 12.635.718 19.323L6.873.483"/></svg></svg><svg width="0" height="11" xmlns="http://www.w3.org/2000/svg" xmlns:xlink="http://www.w3.org/1999/xlink" xmlns:svgjs="http://svgjs.com/svgjs" fill="none" stroke-miterlimit="100" stroke-linecap="round" stroke="rgba(71,71,71,0.3)" stroke-width="6" x="1417" y="1669"><svg xmlns="http://www.w3.org/2000/svg" xmlns:xlink="http://www.w3.org/1999/xlink" width="0" height="11"><path paint-order="stroke fill markers" d="M.977.088v0"/></svg></svg><svg width="11" height="0" xmlns="http://www.w3.org/2000/svg" xmlns:xlink="http://www.w3.org/1999/xlink" xmlns:svgjs="http://svgjs.com/svgjs" fill="none" stroke-miterlimit="100" stroke-linecap="round" stroke="rgba(71,71,71,0.3)" stroke-width="6" x="1412" y="1674"><svg xmlns="http://www.w3.org/2000/svg" xmlns:xlink="http://www.w3.org/1999/xlink" width="11" height="0"><path paint-order="stroke fill markers" d="M11 .112H.922h10.08"/></svg></svg><svg width="4" height="15" xmlns="http://www.w3.org/2000/svg" xmlns:xlink="http://www.w3.org/1999/xlink" xmlns:svgjs="http://svgjs.com/svgjs" viewBox="0.342 0 3.315 15" fill="none" stroke-miterlimit="100" stroke-linecap="round" stroke="rgba(71,71,71,0.3)" stroke-width="3" x="1396" y="1631"><svg xmlns="http://www.w3.org/2000/svg" xmlns:xlink="http://www.w3.org/1999/xlink" width="4" height="15" viewBox="0.374 0.031 3.171 14.35"><path paint-order="stroke fill markers" d="M.374.03l3.17 14.35L.375.03"/></svg></svg><svg width="10" height="41" xmlns="http://www.w3.org/2000/svg" xmlns:xlink="http://www.w3.org/1999/xlink" xmlns:svgjs="http://svgjs.com/svgjs" viewBox="0.466 0 9.068 41" fill="none" stroke-miterlimit="100" stroke-linecap="round" stroke="rgba(71,71,71,0.3)" stroke-width="3" x="1386" y="1585"><svg xmlns="http://www.w3.org/2000/svg" width="10" height="41" viewBox="0.263 0.312 8.918 40.318"><path paint-order="stroke fill markers" d="M.263.312L9.18 40.63.263.312"/></svg></svg></svg></svg>