<svg width="261" height="209" xmlns="http://www.w3.org/2000/svg" xmlns:xlink="http://www.w3.org/1999/xlink" xmlns:svgjs="http://svgjs.com/svgjs" viewBox="884 1598 261 209"><svg width="261" height="0" xmlns="http://www.w3.org/2000/svg" xmlns:xlink="http://www.w3.org/1999/xlink" xmlns:svgjs="http://svgjs.com/svgjs" fill="#fff" x="884" y="1807"><svg xmlns="http://www.w3.org/2000/svg" xmlns:xlink="http://www.w3.org/1999/xlink" width="261" height="0"><path paint-order="stroke fill markers" fill-rule="evenodd" d="M260.648.165H.641h260.007z"/></svg></svg><svg width="162" height="117" xmlns="http://www.w3.org/2000/svg" xmlns:xlink="http://www.w3.org/1999/xlink" xmlns:svgjs="http://svgjs.com/svgjs" viewBox="925 1598 162 117" x="925" y="1598"><svg width="22" height="11" xmlns="http://www.w3.org/2000/svg" xmlns:xlink="http://www.w3.org/1999/xlink" xmlns:svgjs="http://svgjs.com/svgjs" viewBox="0 0.138 22 10.723" fill="none" stroke-miterlimit="100" stroke-linecap="round" stroke="rgba(71, 71, 71, 0.3)" stroke-width="6" x="925" y="1648"><svg xmlns="http://www.w3.org/2000/svg" xmlns:xlink="http://www.w3.org/1999/xlink" width="22" height="11" viewBox="0.592 0.014 20.645 10.063"><path paint-order="stroke fill markers" d="M.592.014h20.644v10.062H.592V.014"/></svg></svg><svg width="21" height="0" xmlns="http://www.w3.org/2000/svg" xmlns:xlink="http://www.w3.org/1999/xlink" xmlns:svgjs="http://svgjs.com/svgjs" fill="none" stroke-miterlimit="100" stroke-linecap="round" stroke="rgba(71, 71, 71, 0.3)" stroke-width="6" x="946" y="1658"><svg xmlns="http://www.w3.org/2000/svg" xmlns:xlink="http://www.w3.org/1999/xlink" width="21" height="0"><path paint-order="stroke fill markers" d="M20.855.076H.236h20.619"/></svg></svg><svg width="8" height="0" xmlns="http://www.w3.org/2000/svg" xmlns:xlink="http://www.w3.org/1999/xlink" xmlns:svgjs="http://svgjs.com/svgjs" fill="none" stroke-miterlimit="100" stroke-linecap="round" stroke="rgba(71, 71, 71, 0.3)" stroke-width="6" x="946" y="1648"><svg xmlns="http://www.w3.org/2000/svg" xmlns:xlink="http://www.w3.org/1999/xlink" width="8" height="0"><path paint-order="stroke fill markers" d="M.236.014h0"/></svg></svg><svg width="22" height="11" xmlns="http://www.w3.org/2000/svg" xmlns:xlink="http://www.w3.org/1999/xlink" xmlns:svgjs="http://svgjs.com/svgjs" viewBox="0 0.132 22 10.736" fill="none" stroke-miterlimit="100" stroke-linecap="round" stroke="rgba(71, 71, 71, 0.3)" stroke-width="6" x="935" y="1658"><svg xmlns="http://www.w3.org/2000/svg" xmlns:xlink="http://www.w3.org/1999/xlink" width="22" height="11" viewBox="0.914 0.076 20.619 10.062"><path paint-order="stroke fill markers" d="M.914.076h20.619V10.14H.914V.076z"/></svg></svg><svg width="19" height="11" xmlns="http://www.w3.org/2000/svg" xmlns:xlink="http://www.w3.org/1999/xlink" xmlns:svgjs="http://svgjs.com/svgjs" viewBox="0 0.013 19 10.975" fill="none" stroke-miterlimit="100" stroke-linecap="round" stroke="rgba(71, 71, 71, 0.3)" stroke-width="6" x="928" y="1668"><svg xmlns="http://www.w3.org/2000/svg" xmlns:xlink="http://www.w3.org/1999/xlink" width="19" height="11" viewBox="0.816 0.19 17.42 10.063"><path paint-order="stroke fill markers" d="M.816.19h17.42v10.063h-6.682L.816.19"/></svg></svg><svg width="21" height="11" xmlns="http://www.w3.org/2000/svg" xmlns:xlink="http://www.w3.org/1999/xlink" xmlns:svgjs="http://svgjs.com/svgjs" viewBox="0 0.376 21 10.249" fill="none" stroke-miterlimit="100" stroke-linecap="round" stroke="rgba(71, 71, 71, 0.3)" stroke-width="6" x="946" y="1668"><svg xmlns="http://www.w3.org/2000/svg" xmlns:xlink="http://www.w3.org/1999/xlink" width="21" height="11" viewBox="0.236 0.19 20.619 10.063"><path paint-order="stroke fill markers" d="M.236.19h20.619v10.063H.236V.19z"/></svg></svg><svg width="22" height="11" xmlns="http://www.w3.org/2000/svg" xmlns:xlink="http://www.w3.org/1999/xlink" xmlns:svgjs="http://svgjs.com/svgjs" viewBox="0 0.152 22 10.695" fill="none" stroke-miterlimit="100" stroke-linecap="round" stroke="rgba(71, 71, 71, 0.3)" stroke-width="6" x="1035" y="1684"><svg xmlns="http://www.w3.org/2000/svg" xmlns:xlink="http://www.w3.org/1999/xlink" width="22" height="11" viewBox="0.575 0.441 20.645 10.036"><path paint-order="stroke fill markers" d="M.575.441H21.22v10.036H.575V.441"/></svg></svg><svg width="21" height="0" xmlns="http://www.w3.org/2000/svg" xmlns:xlink="http://www.w3.org/1999/xlink" xmlns:svgjs="http://svgjs.com/svgjs" fill="none" stroke-miterlimit="100" stroke-linecap="round" stroke="rgba(71, 71, 71, 0.3)" stroke-width="6" x="1056" y="1694"><svg xmlns="http://www.w3.org/2000/svg" xmlns:xlink="http://www.w3.org/1999/xlink" width="21" height="0"><path paint-order="stroke fill markers" d="M20.838.477H.22h20.618"/></svg></svg><svg width="8" height="0" xmlns="http://www.w3.org/2000/svg" xmlns:xlink="http://www.w3.org/1999/xlink" xmlns:svgjs="http://svgjs.com/svgjs" fill="none" stroke-miterlimit="100" stroke-linecap="round" stroke="rgba(71, 71, 71, 0.3)" stroke-width="6" x="1056" y="1684"><svg xmlns="http://www.w3.org/2000/svg" xmlns:xlink="http://www.w3.org/1999/xlink" width="8" height="0"><path paint-order="stroke fill markers" d="M.22.441h0"/></svg></svg><svg width="22" height="11" xmlns="http://www.w3.org/2000/svg" xmlns:xlink="http://www.w3.org/1999/xlink" xmlns:svgjs="http://svgjs.com/svgjs" viewBox="0 0.132 22 10.736" fill="none" stroke-miterlimit="100" stroke-linecap="round" stroke="rgba(71, 71, 71, 0.3)" stroke-width="6" x="1045" y="1694"><svg xmlns="http://www.w3.org/2000/svg" xmlns:xlink="http://www.w3.org/1999/xlink" width="22" height="11" viewBox="0.897 0.477 20.619 10.062"><path paint-order="stroke fill markers" d="M.897.477h20.619V10.54H.897V.477z"/></svg></svg><svg width="19" height="11" xmlns="http://www.w3.org/2000/svg" xmlns:xlink="http://www.w3.org/1999/xlink" xmlns:svgjs="http://svgjs.com/svgjs" viewBox="0 0.013 19 10.975" fill="none" stroke-miterlimit="100" stroke-linecap="round" stroke="rgba(71, 71, 71, 0.3)" stroke-width="6" x="1038" y="1704"><svg xmlns="http://www.w3.org/2000/svg" xmlns:xlink="http://www.w3.org/1999/xlink" width="19" height="11" viewBox="0.799 0.592 17.42 10.063"><path paint-order="stroke fill markers" d="M.8.592h17.42v10.062h-6.683L.8.592"/></svg></svg><svg width="18" height="11" xmlns="http://www.w3.org/2000/svg" xmlns:xlink="http://www.w3.org/1999/xlink" xmlns:svgjs="http://svgjs.com/svgjs" viewBox="0 0.231 18 10.539" fill="none" stroke-miterlimit="100" stroke-linecap="round" stroke="rgba(71, 71, 71, 0.3)" stroke-width="6" x="1056" y="1704"><svg xmlns="http://www.w3.org/2000/svg" xmlns:xlink="http://www.w3.org/1999/xlink" width="18" height="11" viewBox="0.22 0.592 17.187 10.063"><path paint-order="stroke fill markers" d="M13.506 10.654H.22V.592h17.186l-3.9 10.062"/></svg></svg><svg width="33" height="27" xmlns="http://www.w3.org/2000/svg" xmlns:xlink="http://www.w3.org/1999/xlink" xmlns:svgjs="http://svgjs.com/svgjs" viewBox="0 0.123 33 26.754" fill="none" stroke-miterlimit="100" stroke-linecap="round" stroke="rgba(71, 71, 71, 0.3)" stroke-width="6" x="968" y="1610"><svg xmlns="http://www.w3.org/2000/svg" xmlns:xlink="http://www.w3.org/1999/xlink" width="33" height="27" viewBox="0.311 0.339 32.007 25.949"><path paint-order="stroke fill markers" d="M.311.339h32.007v25.949H.31V.338z"/></svg></svg><svg width="13" height="10" xmlns="http://www.w3.org/2000/svg" xmlns:xlink="http://www.w3.org/1999/xlink" xmlns:svgjs="http://svgjs.com/svgjs" viewBox="0 0.369 13 9.262" fill="none" stroke-miterlimit="100" stroke-linecap="round" stroke="rgba(71, 71, 71, 0.3)" stroke-width="6" x="972" y="1621"><svg xmlns="http://www.w3.org/2000/svg" xmlns:xlink="http://www.w3.org/1999/xlink" width="13" height="10" viewBox="0.731 0.779 11.934 8.502"><path paint-order="stroke fill markers" d="M.731 9.282L6.581.779l6.084 7.515-11.934.988"/></svg></svg><svg width="15" height="13" xmlns="http://www.w3.org/2000/svg" xmlns:xlink="http://www.w3.org/1999/xlink" xmlns:svgjs="http://svgjs.com/svgjs" viewBox="0 0.241 15 12.519" fill="none" stroke-miterlimit="100" stroke-linecap="round" stroke="rgba(71, 71, 71, 0.3)" stroke-width="6" x="982" y="1618"><svg xmlns="http://www.w3.org/2000/svg" xmlns:xlink="http://www.w3.org/1999/xlink" width="15" height="13" viewBox="0.429 0.607 13.988 11.674"><path paint-order="stroke fill markers" d="M.43 8.537L8.62.607l5.798 11.675L.429 8.537"/></svg></svg><svg width="6" height="3" xmlns="http://www.w3.org/2000/svg" xmlns:xlink="http://www.w3.org/1999/xlink" xmlns:svgjs="http://svgjs.com/svgjs" viewBox="0 0.364 6 2.271" fill="none" stroke-miterlimit="100" stroke-linecap="round" stroke="rgba(71, 71, 71, 0.3)" stroke-width="6" x="980" y="1621"><svg xmlns="http://www.w3.org/2000/svg" xmlns:xlink="http://www.w3.org/1999/xlink" width="6" height="3" viewBox="0.297 0.779 5.564 2.106"><path paint-order="stroke fill markers" d="M.297 2.885C.713 1.663 1.857.78 3.21.78a3.09 3.09 0 0 1 2.653 1.508l-5.565.598"/></svg></svg><svg width="53" height="7" xmlns="http://www.w3.org/2000/svg" xmlns:xlink="http://www.w3.org/1999/xlink" xmlns:svgjs="http://svgjs.com/svgjs" viewBox="0 0.376 53 6.248" fill="none" stroke-miterlimit="100" stroke-linecap="round" stroke="rgba(71, 71, 71, 0.3)" stroke-width="6" x="1034" y="1647"><svg xmlns="http://www.w3.org/2000/svg" xmlns:xlink="http://www.w3.org/1999/xlink" width="53" height="7" viewBox="0.977 0.728 51.611 6.084"><path paint-order="stroke fill markers" d="M49.546 6.812H4.02A3.03 3.03 0 0 1 .977 3.77s0 0 0 0A3.03 3.03 0 0 1 4.019.728h45.527a3.03 3.03 0 0 1 3.042 3.042s0 0 0 0a3.03 3.03 0 0 1-3.042 3.042z"/></svg></svg><svg width="20" height="18" xmlns="http://www.w3.org/2000/svg" xmlns:xlink="http://www.w3.org/1999/xlink" xmlns:svgjs="http://svgjs.com/svgjs" viewBox="0.024 0 19.951 18" fill="none" stroke-miterlimit="100" stroke-linecap="round" stroke="rgba(71, 71, 71, 0.3)" stroke-width="6" x="1051" y="1630"><svg xmlns="http://www.w3.org/2000/svg" xmlns:xlink="http://www.w3.org/1999/xlink" width="20" height="18" viewBox="0.799 0.698 18.877 17.031"><path paint-order="stroke fill markers" d="M16.894 17.728H3.556L.799.698h18.877l-2.782 17.03z"/></svg></svg><svg width="25" height="6" xmlns="http://www.w3.org/2000/svg" xmlns:xlink="http://www.w3.org/1999/xlink" xmlns:svgjs="http://svgjs.com/svgjs" viewBox="0 0.427 25 5.146" fill="none" stroke-miterlimit="100" stroke-linecap="round" stroke="rgba(71, 71, 71, 0.3)" stroke-width="6" x="1049" y="1625"><svg xmlns="http://www.w3.org/2000/svg" xmlns:xlink="http://www.w3.org/1999/xlink" width="25" height="6" viewBox="0.277 0.757 23.999 4.94"><path paint-order="stroke fill markers" d="M.277.757h23.999v4.94H.277V.758z"/></svg></svg><svg width="10" height="19" xmlns="http://www.w3.org/2000/svg" xmlns:xlink="http://www.w3.org/1999/xlink" xmlns:svgjs="http://svgjs.com/svgjs" viewBox="1057 1607 10 19" x="1057" y="1607"><svg width="10" height="19" xmlns="http://www.w3.org/2000/svg" xmlns:xlink="http://www.w3.org/1999/xlink" xmlns:svgjs="http://svgjs.com/svgjs" viewBox="0.088 0 9.824 19" fill="none" stroke-miterlimit="100" stroke-linecap="round" stroke="rgba(71, 71, 71, 0.3)" stroke-width="6" x="1057" y="1607"><svg xmlns="http://www.w3.org/2000/svg" xmlns:xlink="http://www.w3.org/1999/xlink" width="10" height="19" viewBox="0.038 0.011 9.693 18.746"><path paint-order="stroke fill markers" d="M7.332 18.757H2.418C1.066 14.051-.104 9.111.052 4.275.234 1.96 2.73.01 4.888.01c0 0 0 0 0 0 2.158 0 4.654 1.95 4.836 4.264.104 4.836-1.066 9.776-2.392 14.482z"/></svg></svg></svg><svg width="9" height="9" xmlns="http://www.w3.org/2000/svg" xmlns:xlink="http://www.w3.org/1999/xlink" xmlns:svgjs="http://svgjs.com/svgjs" viewBox="0.845 0 7.309 9" fill="none" stroke-miterlimit="100" stroke-linecap="round" stroke="rgba(71, 71, 71, 0.3)" stroke-width="6" x="1066" y="1604"><svg xmlns="http://www.w3.org/2000/svg" xmlns:xlink="http://www.w3.org/1999/xlink" width="9" height="9" viewBox="0.828 0.067 7.206 8.872"><path paint-order="stroke fill markers" d="M.828 6.703L4.234 1.06A2.044 2.044 0 0 1 7.328.567s0 0 0 0a2.03 2.03 0 0 1-.052 3.12L.88 8.939.828 6.703"/></svg></svg><svg width="4" height="8" xmlns="http://www.w3.org/2000/svg" xmlns:xlink="http://www.w3.org/1999/xlink" xmlns:svgjs="http://svgjs.com/svgjs" viewBox="0.434 0 3.133 8" fill="none" stroke-miterlimit="100" stroke-linecap="round" stroke="rgba(71, 71, 71, 0.3)" stroke-width="6" x="1068" y="1598"><svg xmlns="http://www.w3.org/2000/svg" xmlns:xlink="http://www.w3.org/1999/xlink" width="4" height="8" viewBox="0.606 0.263 2.642 6.745"><path paint-order="stroke fill markers" d="M2.286 7.009L.674 1.965C.414 1.185.934.379 1.74.275c0 0 0 0 0 0A1.334 1.334 0 0 1 3.248 1.6l-.13 4.082-.832 1.326"/></svg></svg></svg><svg width="69" height="88" xmlns="http://www.w3.org/2000/svg" xmlns:xlink="http://www.w3.org/1999/xlink" xmlns:svgjs="http://svgjs.com/svgjs" viewBox="991 1628 69 88" x="991" y="1628"><svg width="69" height="88" xmlns="http://www.w3.org/2000/svg" xmlns:xlink="http://www.w3.org/1999/xlink" xmlns:svgjs="http://svgjs.com/svgjs" viewBox="0 0.068 69 87.864" fill="#77ba85" x="991" y="1628"><svg xmlns="http://www.w3.org/2000/svg" xmlns:xlink="http://www.w3.org/1999/xlink" width="69" height="88" viewBox="0.097 0.531 68.266 86.928"><path paint-order="stroke fill markers" fill-rule="evenodd" d="M68.362 17.086L34.057 87.46.097 70.905 34.403.531l33.96 16.555z"/></svg></svg><svg width="69" height="88" xmlns="http://www.w3.org/2000/svg" xmlns:xlink="http://www.w3.org/1999/xlink" xmlns:svgjs="http://svgjs.com/svgjs" viewBox="0 0.068 69 87.864" fill="none" stroke-miterlimit="100" stroke-linecap="round" stroke="rgba(71, 71, 71, 0.3)" x="991" y="1628"><svg xmlns="http://www.w3.org/2000/svg" xmlns:xlink="http://www.w3.org/1999/xlink" width="69" height="88" viewBox="0.097 0.531 68.266 86.928"><path paint-order="stroke fill markers" d="M68.362 17.086L34.057 87.46.097 70.905 34.403.531l33.96 16.555z"/></svg></svg><svg width="54" height="72" xmlns="http://www.w3.org/2000/svg" xmlns:xlink="http://www.w3.org/1999/xlink" xmlns:svgjs="http://svgjs.com/svgjs" viewBox="0.372 0 53.255 72" fill="#f6f9ea" x="996" y="1638"><svg xmlns="http://www.w3.org/2000/svg" xmlns:xlink="http://www.w3.org/1999/xlink" width="54" height="72" viewBox="0.886 0.03 52.964 71.606"><path paint-order="stroke fill markers" fill-rule="evenodd" d="M49.923 5.334L39.055.03C37 4.268 31.905 6.01 27.667 3.956L.886 58.87l26.183 12.766 26.78-54.914a8.489 8.489 0 0 1-3.926-11.388z"/></svg></svg><svg width="54" height="72" xmlns="http://www.w3.org/2000/svg" xmlns:xlink="http://www.w3.org/1999/xlink" xmlns:svgjs="http://svgjs.com/svgjs" viewBox="0.372 0 53.255 72" fill="none" stroke-miterlimit="100" stroke-linecap="round" stroke="rgba(71, 71, 71, 0.3)" x="996" y="1638"><svg xmlns="http://www.w3.org/2000/svg" xmlns:xlink="http://www.w3.org/1999/xlink" width="54" height="72" viewBox="0.886 0.03 52.964 71.606"><path paint-order="stroke fill markers" d="M49.923 5.334L39.055.03C37 4.268 31.905 6.01 27.667 3.956L.886 58.87l26.183 12.766 26.78-54.914a8.489 8.489 0 0 1-3.926-11.388z"/></svg></svg><svg width="58" height="76" xmlns="http://www.w3.org/2000/svg" xmlns:xlink="http://www.w3.org/1999/xlink" xmlns:svgjs="http://svgjs.com/svgjs" viewBox="0.412 0 57.177 76" fill="none" stroke-miterlimit="100" stroke-linecap="round" stroke="rgba(71, 71, 71, 0.3)" x="996" y="1634"><svg xmlns="http://www.w3.org/2000/svg" xmlns:xlink="http://www.w3.org/1999/xlink" width="58" height="76" viewBox="0.89 0.307 56.688 75.351"><path paint-order="stroke fill markers" d="M31.401.307l26.177 12.76-30.512 62.591L.89 62.898 31.4.308z"/></svg></svg><svg width="19" height="19" xmlns="http://www.w3.org/2000/svg" xmlns:xlink="http://www.w3.org/1999/xlink" xmlns:svgjs="http://svgjs.com/svgjs" fill="#77ba85" x="1018" y="1657"><svg xmlns="http://www.w3.org/2000/svg" xmlns:xlink="http://www.w3.org/1999/xlink" width="19" height="19" viewBox="0.908 0.582 17.837 17.836"><path paint-order="stroke fill markers" fill-rule="evenodd" d="M9.827 18.419A8.91 8.91 0 0 1 .908 9.5 8.91 8.91 0 0 1 9.827.582a8.91 8.91 0 0 1 8.918 8.919 8.91 8.91 0 0 1-8.918 8.918z"/></svg></svg><svg width="19" height="19" xmlns="http://www.w3.org/2000/svg" xmlns:xlink="http://www.w3.org/1999/xlink" xmlns:svgjs="http://svgjs.com/svgjs" fill="none" stroke-miterlimit="100" stroke-linecap="round" stroke="rgba(71, 71, 71, 0.3)" x="1018" y="1657"><svg xmlns="http://www.w3.org/2000/svg" xmlns:xlink="http://www.w3.org/1999/xlink" width="19" height="19" viewBox="0.908 0.582 17.837 17.836"><path paint-order="stroke fill markers" d="M9.827 18.419A8.91 8.91 0 0 1 .908 9.5 8.91 8.91 0 0 1 9.827.582a8.91 8.91 0 0 1 8.918 8.919 8.91 8.91 0 0 1-8.918 8.918z"/></svg></svg></svg><svg width="85" height="80" xmlns="http://www.w3.org/2000/svg" xmlns:xlink="http://www.w3.org/1999/xlink" xmlns:svgjs="http://svgjs.com/svgjs" viewBox="1000 1639 85 80" x="1000" y="1639"><svg width="85" height="80" xmlns="http://www.w3.org/2000/svg" xmlns:xlink="http://www.w3.org/1999/xlink" xmlns:svgjs="http://svgjs.com/svgjs" viewBox="0 0.339 85 79.323" fill="#97cd78" x="1000" y="1639"><svg xmlns="http://www.w3.org/2000/svg" xmlns:xlink="http://www.w3.org/1999/xlink" width="85" height="80" viewBox="0.415 0.982 84.492 78.849"><path paint-order="stroke fill markers" fill-rule="evenodd" d="M84.908 30.196l-60.54 49.635L.415 50.616 60.955.982l23.953 29.214z"/></svg></svg><svg width="85" height="80" xmlns="http://www.w3.org/2000/svg" xmlns:xlink="http://www.w3.org/1999/xlink" xmlns:svgjs="http://svgjs.com/svgjs" viewBox="0 0.339 85 79.323" fill="none" stroke-miterlimit="100" stroke-linecap="round" stroke="rgba(71, 71, 71, 0.3)" x="1000" y="1639"><svg xmlns="http://www.w3.org/2000/svg" xmlns:xlink="http://www.w3.org/1999/xlink" width="85" height="80" viewBox="0.415 0.982 84.492 78.849"><path paint-order="stroke fill markers" d="M84.908 30.196l-60.54 49.635L.415 50.616 60.955.982l23.953 29.214z"/></svg></svg><svg width="68" height="62" xmlns="http://www.w3.org/2000/svg" xmlns:xlink="http://www.w3.org/1999/xlink" xmlns:svgjs="http://svgjs.com/svgjs" viewBox="0.145 0 67.71 62" fill="#f6f9ea" x="1006" y="1651"><svg xmlns="http://www.w3.org/2000/svg" xmlns:xlink="http://www.w3.org/1999/xlink" width="68" height="62" viewBox="0.506 0.472 66.9 61.258"><path paint-order="stroke fill markers" fill-rule="evenodd" d="M67.406 11.003l-7.67-9.335C56.096 4.658 50.74 4.112 47.75.472L.506 39.213l18.46 22.517L66.21 22.989c-2.99-3.614-2.444-8.996 1.196-11.986z"/></svg></svg><svg width="68" height="62" xmlns="http://www.w3.org/2000/svg" xmlns:xlink="http://www.w3.org/1999/xlink" xmlns:svgjs="http://svgjs.com/svgjs" viewBox="0.145 0 67.71 62" fill="none" stroke-miterlimit="100" stroke-linecap="round" stroke="rgba(71, 71, 71, 0.3)" x="1006" y="1651"><svg xmlns="http://www.w3.org/2000/svg" xmlns:xlink="http://www.w3.org/1999/xlink" width="68" height="62" viewBox="0.506 0.472 66.9 61.258"><path paint-order="stroke fill markers" d="M67.406 11.003l-7.67-9.335C56.096 4.658 50.74 4.112 47.75.472L.506 39.213l18.46 22.517L66.21 22.989c-2.99-3.614-2.444-8.996 1.196-11.986z"/></svg></svg><svg width="73" height="67" xmlns="http://www.w3.org/2000/svg" xmlns:xlink="http://www.w3.org/1999/xlink" xmlns:svgjs="http://svgjs.com/svgjs" viewBox="0.164 0 72.671 67" fill="none" stroke-miterlimit="100" stroke-linecap="round" stroke="rgba(71, 71, 71, 0.3)" x="1006" y="1646"><svg xmlns="http://www.w3.org/2000/svg" xmlns:xlink="http://www.w3.org/1999/xlink" width="73" height="67" viewBox="0.483 0.083 72.308 66.665"><path paint-order="stroke fill markers" d="M54.328.083l18.463 22.52-53.845 44.145L.483 44.228 54.328.083z"/></svg></svg><svg width="19" height="19" xmlns="http://www.w3.org/2000/svg" xmlns:xlink="http://www.w3.org/1999/xlink" xmlns:svgjs="http://svgjs.com/svgjs" fill="#97cd78" x="1038" y="1666"><svg xmlns="http://www.w3.org/2000/svg" xmlns:xlink="http://www.w3.org/1999/xlink" width="19" height="19" viewBox="0.383 0.605 17.837 17.837"><path paint-order="stroke fill markers" fill-rule="evenodd" d="M9.301 18.441A8.91 8.91 0 0 1 .383 9.523 8.91 8.91 0 0 1 9.301.605a8.91 8.91 0 0 1 8.919 8.918A8.91 8.91 0 0 1 9.3 18.44z"/></svg></svg><svg width="19" height="19" xmlns="http://www.w3.org/2000/svg" xmlns:xlink="http://www.w3.org/1999/xlink" xmlns:svgjs="http://svgjs.com/svgjs" fill="none" stroke-miterlimit="100" stroke-linecap="round" stroke="rgba(71, 71, 71, 0.3)" x="1038" y="1666"><svg xmlns="http://www.w3.org/2000/svg" xmlns:xlink="http://www.w3.org/1999/xlink" width="19" height="19" viewBox="0.383 0.605 17.837 17.837"><path paint-order="stroke fill markers" d="M9.301 18.441A8.91 8.91 0 0 1 .383 9.523 8.91 8.91 0 0 1 9.301.605a8.91 8.91 0 0 1 8.919 8.918A8.91 8.91 0 0 1 9.3 18.44z"/></svg></svg><svg width="49" height="65" xmlns="http://www.w3.org/2000/svg" xmlns:xlink="http://www.w3.org/1999/xlink" xmlns:svgjs="http://svgjs.com/svgjs" viewBox="0.445 0 48.11 65" fill="rgba(71, 71, 71, 0.3)" stroke-miterlimit="100" stroke-linecap="round" stroke="rgba(71, 71, 71, 0.3)" stroke-width="6" opacity=".322" x="1000" y="1654"><svg xmlns="http://www.w3.org/2000/svg" xmlns:xlink="http://www.w3.org/1999/xlink" width="49" height="65" viewBox="0.396 0.098 47.919 64.742"><path paint-order="stroke fill markers" fill-rule="evenodd" d="M48.29 12.163c0-4.629-1.743-8.84-4.577-12.065L.396 35.615 24.369 64.84l23.946-19.63V12.162h-.026z"/></svg></svg></svg><svg width="173" height="0" xmlns="http://www.w3.org/2000/svg" xmlns:xlink="http://www.w3.org/1999/xlink" xmlns:svgjs="http://svgjs.com/svgjs" fill="none" stroke-miterlimit="100" stroke-linecap="round" stroke="rgba(71, 71, 71, 0.3)" stroke-width="6" opacity=".149" x="928" y="1741"><svg xmlns="http://www.w3.org/2000/svg" xmlns:xlink="http://www.w3.org/1999/xlink" width="173" height="0"><path paint-order="stroke fill markers" d="M.582.825h0"/></svg></svg><svg width="87" height="99" xmlns="http://www.w3.org/2000/svg" xmlns:xlink="http://www.w3.org/1999/xlink" xmlns:svgjs="http://svgjs.com/svgjs" viewBox="959 1643 87 99" x="959" y="1643"><svg width="87" height="93" xmlns="http://www.w3.org/2000/svg" xmlns:xlink="http://www.w3.org/1999/xlink" xmlns:svgjs="http://svgjs.com/svgjs" viewBox="0.396 0 86.208 93" fill="#f58870" x="959" y="1649"><svg xmlns="http://www.w3.org/2000/svg" xmlns:xlink="http://www.w3.org/1999/xlink" width="87" height="93" viewBox="0.887 0.262 85.802 92.563"><path paint-order="stroke fill markers" fill-rule="evenodd" d="M71.089 92.825H16.487c-8.606 0-15.6-6.994-15.6-15.6V15.861c0-8.606 6.994-15.6 15.6-15.6H71.09c8.606 0 15.6 6.994 15.6 15.6v61.362a15.58 15.58 0 0 1-15.6 15.6z"/></svg></svg><svg width="87" height="93" xmlns="http://www.w3.org/2000/svg" xmlns:xlink="http://www.w3.org/1999/xlink" xmlns:svgjs="http://svgjs.com/svgjs" viewBox="0.396 0 86.208 93" fill="#f58870" x="959" y="1649"><svg xmlns="http://www.w3.org/2000/svg" xmlns:xlink="http://www.w3.org/1999/xlink" width="87" height="93" viewBox="0.887 0.262 85.802 92.563"><path paint-order="stroke fill markers" fill-rule="evenodd" d="M71.089 92.825H16.487c-8.606 0-15.6-6.994-15.6-15.6V15.861c0-8.606 6.994-15.6 15.6-15.6H71.09c8.606 0 15.6 6.994 15.6 15.6v61.362a15.58 15.58 0 0 1-15.6 15.6z"/></svg></svg><svg width="87" height="19" xmlns="http://www.w3.org/2000/svg" xmlns:xlink="http://www.w3.org/1999/xlink" xmlns:svgjs="http://svgjs.com/svgjs" viewBox="0.019 0 86.962 19" fill="#dd7868" x="959" y="1723"><svg xmlns="http://www.w3.org/2000/svg" xmlns:xlink="http://www.w3.org/1999/xlink" width="87" height="19" viewBox="0.887 0.078 85.802 18.747"><path paint-order="stroke fill markers" fill-rule="evenodd" d="M71.089 15.679H16.487C7.881 15.679.887 8.684.887.078v3.146c0 8.607 6.994 15.6 15.6 15.6H71.09c8.606 0 15.6-6.993 15.6-15.6V.078c0 8.606-6.968 15.6-15.6 15.6z"/></svg></svg><svg width="87" height="18" xmlns="http://www.w3.org/2000/svg" xmlns:xlink="http://www.w3.org/1999/xlink" xmlns:svgjs="http://svgjs.com/svgjs" viewBox="0 0.036 87 17.927" fill="#ffa399" x="959" y="1649"><svg xmlns="http://www.w3.org/2000/svg" xmlns:xlink="http://www.w3.org/1999/xlink" width="87" height="18" viewBox="0.887 0.262 85.802 17.68"><path paint-order="stroke fill markers" fill-rule="evenodd" d="M71.089.262H16.487C7.881.262.887 6.684.887 14.59v3.354c0-7.905 6.994-14.327 15.6-14.327H71.09c8.606 0 15.6 6.422 15.6 14.327v-3.354c0-7.905-6.968-14.327-15.6-14.327z"/></svg></svg><svg width="24" height="39" xmlns="http://www.w3.org/2000/svg" xmlns:xlink="http://www.w3.org/1999/xlink" xmlns:svgjs="http://svgjs.com/svgjs" viewBox="0.02 0 23.959 39" fill="rgba(71, 71, 71, 0.3)" stroke-miterlimit="100" stroke-linecap="round" stroke="rgba(71, 71, 71, 0.3)" stroke-width="6" opacity=".302" x="993" y="1649"><svg xmlns="http://www.w3.org/2000/svg" xmlns:xlink="http://www.w3.org/1999/xlink" width="24" height="39" viewBox="0.168 0.262 23.401 38.091"><path paint-order="stroke fill markers" fill-rule="evenodd" d="M18.888 38.353H4.848a4.694 4.694 0 0 1-4.68-4.68V4.943a4.694 4.694 0 0 1 4.68-4.68h18.72v33.41c0 2.574-2.08 4.68-4.68 4.68z"/></svg></svg><svg width="87" height="93" xmlns="http://www.w3.org/2000/svg" xmlns:xlink="http://www.w3.org/1999/xlink" xmlns:svgjs="http://svgjs.com/svgjs" viewBox="0.396 0 86.208 93" fill="none" stroke-miterlimit="100" stroke-linecap="round" stroke="rgba(71, 71, 71, 0.3)" x="959" y="1649"><svg xmlns="http://www.w3.org/2000/svg" xmlns:xlink="http://www.w3.org/1999/xlink" width="87" height="93" viewBox="0.887 0.262 85.802 92.563"><path paint-order="stroke fill markers" d="M71.089 92.825H16.487c-8.606 0-15.6-6.994-15.6-15.6V15.861c0-8.606 6.994-15.6 15.6-15.6H71.09c8.606 0 15.6 6.994 15.6 15.6v61.362a15.58 15.58 0 0 1-15.6 15.6z"/></svg></svg><svg width="75" height="81" xmlns="http://www.w3.org/2000/svg" xmlns:xlink="http://www.w3.org/1999/xlink" xmlns:svgjs="http://svgjs.com/svgjs" viewBox="965 1655 75 81" x="965" y="1655"><svg width="75" height="81" xmlns="http://www.w3.org/2000/svg" xmlns:xlink="http://www.w3.org/1999/xlink" xmlns:svgjs="http://svgjs.com/svgjs" viewBox="0.003 0 74.995 81" fill="none" stroke-miterlimit="100" stroke-linecap="round" stroke="rgba(71, 71, 71, 0.3)" x="965" y="1655"><svg xmlns="http://www.w3.org/2000/svg" xmlns:xlink="http://www.w3.org/1999/xlink" width="75" height="81" viewBox="0.607 0.372 74.362 80.317"><path paint-order="stroke fill markers" d="M.607 70.834V10.252c0-5.46 4.42-9.88 9.88-9.88H65.09c5.46 0 9.88 4.42 9.88 9.88v60.556c0 5.46-4.42 9.88-9.88 9.88H10.487c-5.46.027-9.88-4.394-9.88-9.854z"/></svg></svg></svg><svg width="24" height="42" xmlns="http://www.w3.org/2000/svg" xmlns:xlink="http://www.w3.org/1999/xlink" xmlns:svgjs="http://svgjs.com/svgjs" viewBox="0.038 0 23.924 42" fill="#f79765" x="991" y="1643"><svg xmlns="http://www.w3.org/2000/svg" xmlns:xlink="http://www.w3.org/1999/xlink" width="24" height="42" viewBox="0.088 0.412 23.401 41.081"><path paint-order="stroke fill markers" fill-rule="evenodd" d="M18.808 41.493H4.768a4.694 4.694 0 0 1-4.68-4.68V5.093A4.694 4.694 0 0 1 4.768.411h14.04a4.694 4.694 0 0 1 4.68 4.68v31.721c0 2.574-2.08 4.68-4.68 4.68z"/></svg></svg><svg width="24" height="8" xmlns="http://www.w3.org/2000/svg" xmlns:xlink="http://www.w3.org/1999/xlink" xmlns:svgjs="http://svgjs.com/svgjs" viewBox="0 0.493 24 7.013" fill="#e27444" x="991" y="1677"><svg xmlns="http://www.w3.org/2000/svg" xmlns:xlink="http://www.w3.org/1999/xlink" width="24" height="8" viewBox="0.088 0.655 23.401 6.838"><path paint-order="stroke fill markers" fill-rule="evenodd" d="M18.808 5.335H4.768A4.694 4.694 0 0 1 .088.655v2.158a4.694 4.694 0 0 0 4.68 4.68h14.04a4.694 4.694 0 0 0 4.68-4.68V.655c0 2.574-2.08 4.68-4.68 4.68z"/></svg></svg><svg width="24" height="7" xmlns="http://www.w3.org/2000/svg" xmlns:xlink="http://www.w3.org/1999/xlink" xmlns:svgjs="http://svgjs.com/svgjs" viewBox="0 0.193 24 6.613" fill="#ffb797" x="991" y="1643"><svg xmlns="http://www.w3.org/2000/svg" xmlns:xlink="http://www.w3.org/1999/xlink" width="24" height="7" viewBox="0.088 0.412 23.401 6.448"><path paint-order="stroke fill markers" fill-rule="evenodd" d="M18.808.412H4.768a4.694 4.694 0 0 0-4.68 4.68V6.86a4.694 4.694 0 0 1 4.68-4.68h14.04a4.694 4.694 0 0 1 4.68 4.68V5.092c0-2.574-2.08-4.68-4.68-4.68z"/></svg></svg><svg width="24" height="42" xmlns="http://www.w3.org/2000/svg" xmlns:xlink="http://www.w3.org/1999/xlink" xmlns:svgjs="http://svgjs.com/svgjs" viewBox="0.038 0 23.924 42" fill="none" stroke-miterlimit="100" stroke-linecap="round" stroke="rgba(71, 71, 71, 0.3)" x="991" y="1643"><svg xmlns="http://www.w3.org/2000/svg" xmlns:xlink="http://www.w3.org/1999/xlink" width="24" height="42" viewBox="0.088 0.412 23.401 41.081"><path paint-order="stroke fill markers" d="M18.808 41.493H4.768a4.694 4.694 0 0 1-4.68-4.68V5.093A4.694 4.694 0 0 1 4.768.411h14.04a4.694 4.694 0 0 1 4.68 4.68v31.721c0 2.574-2.08 4.68-4.68 4.68z"/></svg></svg><svg width="13" height="13" xmlns="http://www.w3.org/2000/svg" xmlns:xlink="http://www.w3.org/1999/xlink" xmlns:svgjs="http://svgjs.com/svgjs" fill="rgba(71, 71, 71, 0.3)" stroke-miterlimit="100" stroke-linecap="round" stroke="rgba(71, 71, 71, 0.3)" stroke-width="6" opacity=".302" x="997" y="1665"><svg xmlns="http://www.w3.org/2000/svg" xmlns:xlink="http://www.w3.org/1999/xlink" width="13" height="13" viewBox="0.536 0.721 12.064 12.064"><path paint-order="stroke fill markers" fill-rule="evenodd" d="M6.568 12.785A6.027 6.027 0 0 1 .536 6.753 6.027 6.027 0 0 1 6.568.72 6.027 6.027 0 0 1 12.6 6.753a6.027 6.027 0 0 1-6.032 6.032z"/></svg></svg><svg width="18" height="36" xmlns="http://www.w3.org/2000/svg" xmlns:xlink="http://www.w3.org/1999/xlink" xmlns:svgjs="http://svgjs.com/svgjs" viewBox="994 1646 18 36" x="994" y="1646"><svg width="18" height="36" xmlns="http://www.w3.org/2000/svg" xmlns:xlink="http://www.w3.org/1999/xlink" xmlns:svgjs="http://svgjs.com/svgjs" viewBox="0.134 0 17.731 36" fill="none" stroke-miterlimit="100" stroke-linecap="round" stroke="rgba(71, 71, 71, 0.3)" x="994" y="1646"><svg xmlns="http://www.w3.org/2000/svg" xmlns:xlink="http://www.w3.org/1999/xlink" width="18" height="36" viewBox="0.208 0.532 17.16 34.841"><path paint-order="stroke fill markers" d="M1.768 35.373c-.858 0-1.56-.702-1.56-1.56V2.093c0-.859.702-1.561 1.56-1.561h14.04c.858 0 1.56.702 1.56 1.56v31.721c0 .858-.702 1.56-1.56 1.56H1.768z"/></svg></svg></svg><svg width="13" height="13" xmlns="http://www.w3.org/2000/svg" xmlns:xlink="http://www.w3.org/1999/xlink" xmlns:svgjs="http://svgjs.com/svgjs" fill="#8f6d5d" x="996" y="1664"><svg xmlns="http://www.w3.org/2000/svg" xmlns:xlink="http://www.w3.org/1999/xlink" width="13" height="13" viewBox="0.756 0.16 12.064 12.064"><path paint-order="stroke fill markers" fill-rule="evenodd" d="M6.788 12.225A6.027 6.027 0 0 1 .756 6.193 6.027 6.027 0 0 1 6.788.16a6.027 6.027 0 0 1 6.032 6.033 6.027 6.027 0 0 1-6.032 6.032z"/></svg></svg><svg width="13" height="13" xmlns="http://www.w3.org/2000/svg" xmlns:xlink="http://www.w3.org/1999/xlink" xmlns:svgjs="http://svgjs.com/svgjs" fill="none" stroke-miterlimit="100" stroke-linecap="round" stroke="rgba(71, 71, 71, 0.3)" stroke-width="6" x="996" y="1664"><svg xmlns="http://www.w3.org/2000/svg" xmlns:xlink="http://www.w3.org/1999/xlink" width="13" height="13" viewBox="0.756 0.16 12.064 12.064"><path paint-order="stroke fill markers" d="M6.788 12.225A6.027 6.027 0 0 1 .756 6.193 6.027 6.027 0 0 1 6.788.16a6.027 6.027 0 0 1 6.032 6.033 6.027 6.027 0 0 1-6.032 6.032z"/></svg></svg><svg width="7" height="5" xmlns="http://www.w3.org/2000/svg" xmlns:xlink="http://www.w3.org/1999/xlink" xmlns:svgjs="http://svgjs.com/svgjs" viewBox="999 1665 7 5" x="999" y="1665"><svg width="7" height="5" xmlns="http://www.w3.org/2000/svg" xmlns:xlink="http://www.w3.org/1999/xlink" xmlns:svgjs="http://svgjs.com/svgjs" viewBox="0 0.45 7 4.101" fill="#fffcee" x="999" y="1665"><svg xmlns="http://www.w3.org/2000/svg" xmlns:xlink="http://www.w3.org/1999/xlink" width="7" height="5" viewBox="0.124 0.652 6.236 3.653"><path paint-order="stroke fill markers" fill-rule="evenodd" d="M6.336 2.099c.208.988-.962 1.612-2.678 1.975-1.742.339-3.302.39-3.51-.441-.208-.806.962-2.34 2.678-2.835 1.742-.493 3.302.338 3.51 1.3z"/></svg></svg></svg></svg><svg width="23" height="6" xmlns="http://www.w3.org/2000/svg" xmlns:xlink="http://www.w3.org/1999/xlink" xmlns:svgjs="http://svgjs.com/svgjs" viewBox="1069 1736 23 6" x="1069" y="1736"><svg width="23" height="6" xmlns="http://www.w3.org/2000/svg" xmlns:xlink="http://www.w3.org/1999/xlink" xmlns:svgjs="http://svgjs.com/svgjs" viewBox="0 0.349 23 5.301" fill="#fdb740" x="1069" y="1736"><svg xmlns="http://www.w3.org/2000/svg" xmlns:xlink="http://www.w3.org/1999/xlink" width="23" height="6" viewBox="0.506 0.755 21.997 5.07"><path paint-order="stroke fill markers" fill-rule="evenodd" d="M20.605 5.825H2.404A1.909 1.909 0 0 1 .506 3.927V2.653c0-1.04.858-1.898 1.898-1.898h18.2c1.04 0 1.899.858 1.899 1.898v1.274a1.892 1.892 0 0 1-1.898 1.898z"/></svg></svg><svg width="23" height="3" xmlns="http://www.w3.org/2000/svg" xmlns:xlink="http://www.w3.org/1999/xlink" xmlns:svgjs="http://svgjs.com/svgjs" viewBox="0 0.127 23 2.746" fill="#fff3c0" opacity=".878" x="1069" y="1737"><svg xmlns="http://www.w3.org/2000/svg" xmlns:xlink="http://www.w3.org/1999/xlink" width="23" height="3" viewBox="0.506 0.301 21.997 2.626"><path paint-order="stroke fill markers" fill-rule="evenodd" d="M20.605.3H2.404C1.364.3.506 1.16.506 2.2v.728c0-1.04.858-1.898 1.898-1.898h18.2c1.04 0 1.899.858 1.899 1.898v-.728c0-1.04-.858-1.898-1.898-1.898z"/></svg></svg><svg width="23" height="4" xmlns="http://www.w3.org/2000/svg" xmlns:xlink="http://www.w3.org/1999/xlink" xmlns:svgjs="http://svgjs.com/svgjs" viewBox="0 0.627 23 2.746" fill="#f29e25" x="1069" y="1738"><svg xmlns="http://www.w3.org/2000/svg" xmlns:xlink="http://www.w3.org/1999/xlink" width="23" height="4" viewBox="0.506 0.627 21.997 2.626"><path paint-order="stroke fill markers" fill-rule="evenodd" d="M20.605 3.253H2.404A1.909 1.909 0 0 1 .506 1.355V.627c0 1.04.858 1.898 1.898 1.898h18.2c1.04 0 1.899-.858 1.899-1.898v.728a1.892 1.892 0 0 1-1.898 1.898z"/></svg></svg><svg width="23" height="6" xmlns="http://www.w3.org/2000/svg" xmlns:xlink="http://www.w3.org/1999/xlink" xmlns:svgjs="http://svgjs.com/svgjs" viewBox="0 0.349 23 5.301" fill="none" stroke-miterlimit="100" stroke-linecap="round" stroke="rgba(71, 71, 71, 0.3)" x="1069" y="1736"><svg xmlns="http://www.w3.org/2000/svg" xmlns:xlink="http://www.w3.org/1999/xlink" width="23" height="6" viewBox="0.506 0.755 21.997 5.07"><path paint-order="stroke fill markers" d="M20.605 5.825H2.404A1.909 1.909 0 0 1 .506 3.927V2.653c0-1.04.858-1.898 1.898-1.898h18.2c1.04 0 1.899.858 1.899 1.898v1.274a1.892 1.892 0 0 1-1.898 1.898z"/></svg></svg></svg><svg width="23" height="6" xmlns="http://www.w3.org/2000/svg" xmlns:xlink="http://www.w3.org/1999/xlink" xmlns:svgjs="http://svgjs.com/svgjs" viewBox="1072 1731 23 6" x="1072" y="1731"><svg width="23" height="6" xmlns="http://www.w3.org/2000/svg" xmlns:xlink="http://www.w3.org/1999/xlink" xmlns:svgjs="http://svgjs.com/svgjs" viewBox="0 0.349 23 5.301" fill="#fdb740" x="1072" y="1731"><svg xmlns="http://www.w3.org/2000/svg" xmlns:xlink="http://www.w3.org/1999/xlink" width="23" height="6" viewBox="0.548 0.711 21.997 5.07"><path paint-order="stroke fill markers" fill-rule="evenodd" d="M20.647 5.78h-18.2A1.909 1.909 0 0 1 .547 3.884V2.608c0-1.04.858-1.897 1.898-1.897h18.2c1.04 0 1.899.857 1.899 1.897v1.275c-.026 1.066-.858 1.898-1.898 1.898z"/></svg></svg><svg width="23" height="3" xmlns="http://www.w3.org/2000/svg" xmlns:xlink="http://www.w3.org/1999/xlink" xmlns:svgjs="http://svgjs.com/svgjs" viewBox="0 0.127 23 2.746" fill="#fff3c0" opacity=".878" x="1072" y="1732"><svg xmlns="http://www.w3.org/2000/svg" xmlns:xlink="http://www.w3.org/1999/xlink" width="23" height="3" viewBox="0.548 0.257 21.997 2.626"><path paint-order="stroke fill markers" fill-rule="evenodd" d="M20.647.257h-18.2C1.405.257.547 1.115.547 2.155v.728c0-1.04.858-1.898 1.898-1.898h18.2c1.04 0 1.899.858 1.899 1.898v-.728c-.026-1.04-.858-1.898-1.898-1.898z"/></svg></svg><svg width="23" height="4" xmlns="http://www.w3.org/2000/svg" xmlns:xlink="http://www.w3.org/1999/xlink" xmlns:svgjs="http://svgjs.com/svgjs" viewBox="0 0.627 23 2.746" fill="#f29e25" x="1072" y="1733"><svg xmlns="http://www.w3.org/2000/svg" xmlns:xlink="http://www.w3.org/1999/xlink" width="23" height="4" viewBox="0.548 0.582 21.997 2.626"><path paint-order="stroke fill markers" fill-rule="evenodd" d="M20.647 3.209h-18.2A1.909 1.909 0 0 1 .547 1.31V.582c0 1.04.858 1.898 1.898 1.898h18.2c1.04 0 1.899-.858 1.899-1.898v.729c-.026 1.066-.858 1.898-1.898 1.898z"/></svg></svg><svg width="23" height="6" xmlns="http://www.w3.org/2000/svg" xmlns:xlink="http://www.w3.org/1999/xlink" xmlns:svgjs="http://svgjs.com/svgjs" viewBox="0 0.349 23 5.301" fill="none" stroke-miterlimit="100" stroke-linecap="round" stroke="rgba(71, 71, 71, 0.3)" x="1072" y="1731"><svg xmlns="http://www.w3.org/2000/svg" xmlns:xlink="http://www.w3.org/1999/xlink" width="23" height="6" viewBox="0.548 0.711 21.997 5.07"><path paint-order="stroke fill markers" d="M20.647 5.78h-18.2A1.909 1.909 0 0 1 .547 3.884V2.608c0-1.04.858-1.897 1.898-1.897h18.2c1.04 0 1.899.857 1.899 1.897v1.275c-.026 1.066-.858 1.898-1.898 1.898z"/></svg></svg></svg><svg width="23" height="6" xmlns="http://www.w3.org/2000/svg" xmlns:xlink="http://www.w3.org/1999/xlink" xmlns:svgjs="http://svgjs.com/svgjs" viewBox="1069 1726 23 6" x="1069" y="1726"><svg width="23" height="6" xmlns="http://www.w3.org/2000/svg" xmlns:xlink="http://www.w3.org/1999/xlink" xmlns:svgjs="http://svgjs.com/svgjs" viewBox="0 0.349 23 5.302" fill="#fdb740" x="1069" y="1726"><svg xmlns="http://www.w3.org/2000/svg" xmlns:xlink="http://www.w3.org/1999/xlink" width="23" height="6" viewBox="0.506 0.666 21.997 5.07"><path paint-order="stroke fill markers" fill-rule="evenodd" d="M20.605 5.737H2.404A1.909 1.909 0 0 1 .506 3.838V2.564c0-1.04.858-1.898 1.898-1.898h18.2c1.04 0 1.899.858 1.899 1.898v1.274a1.892 1.892 0 0 1-1.898 1.899z"/></svg></svg><svg width="23" height="3" xmlns="http://www.w3.org/2000/svg" xmlns:xlink="http://www.w3.org/1999/xlink" xmlns:svgjs="http://svgjs.com/svgjs" viewBox="0 0.127 23 2.746" fill="#fff3c0" opacity=".878" x="1069" y="1727"><svg xmlns="http://www.w3.org/2000/svg" xmlns:xlink="http://www.w3.org/1999/xlink" width="23" height="3" viewBox="0.506 0.238 21.997 2.626"><path paint-order="stroke fill markers" fill-rule="evenodd" d="M20.605.238H2.404c-1.04 0-1.898.858-1.898 1.898v.728c0-1.04.858-1.898 1.898-1.898h18.2c1.04 0 1.899.858 1.899 1.898v-.728A1.892 1.892 0 0 0 20.605.238z"/></svg></svg><svg width="23" height="4" xmlns="http://www.w3.org/2000/svg" xmlns:xlink="http://www.w3.org/1999/xlink" xmlns:svgjs="http://svgjs.com/svgjs" viewBox="0 0.627 23 2.746" fill="#f29e25" x="1069" y="1728"><svg xmlns="http://www.w3.org/2000/svg" xmlns:xlink="http://www.w3.org/1999/xlink" width="23" height="4" viewBox="0.506 0.564 21.997 2.626"><path paint-order="stroke fill markers" fill-rule="evenodd" d="M20.605 3.19H2.404A1.908 1.908 0 0 1 .506 1.292V.564c0 1.04.858 1.898 1.898 1.898h18.2c1.04 0 1.899-.858 1.899-1.898v.728c0 1.04-.858 1.898-1.898 1.898z"/></svg></svg><svg width="23" height="6" xmlns="http://www.w3.org/2000/svg" xmlns:xlink="http://www.w3.org/1999/xlink" xmlns:svgjs="http://svgjs.com/svgjs" viewBox="0 0.349 23 5.302" fill="none" stroke-miterlimit="100" stroke-linecap="round" stroke="rgba(71, 71, 71, 0.3)" x="1069" y="1726"><svg xmlns="http://www.w3.org/2000/svg" xmlns:xlink="http://www.w3.org/1999/xlink" width="23" height="6" viewBox="0.506 0.666 21.997 5.07"><path paint-order="stroke fill markers" d="M20.605 5.737H2.404A1.909 1.909 0 0 1 .506 3.838V2.564c0-1.04.858-1.898 1.898-1.898h18.2c1.04 0 1.899.858 1.899 1.898v1.274a1.892 1.892 0 0 1-1.898 1.899z"/></svg></svg></svg><svg width="18" height="19" xmlns="http://www.w3.org/2000/svg" xmlns:xlink="http://www.w3.org/1999/xlink" xmlns:svgjs="http://svgjs.com/svgjs" viewBox="1052 1723 18 19" x="1052" y="1723"><svg width="18" height="19" xmlns="http://www.w3.org/2000/svg" xmlns:xlink="http://www.w3.org/1999/xlink" xmlns:svgjs="http://svgjs.com/svgjs" viewBox="0 0.066 18 18.868" fill="#fdb740" x="1052" y="1723"><svg xmlns="http://www.w3.org/2000/svg" xmlns:xlink="http://www.w3.org/1999/xlink" width="18" height="19" viewBox="0.4 0.886 17.111 17.936"><path paint-order="stroke fill markers" fill-rule="evenodd" d="M17.012 4.94L4.584 18.227a1.89 1.89 0 0 1-2.678.078l-.91-.858a1.89 1.89 0 0 1-.079-2.678L13.346 1.482a1.89 1.89 0 0 1 2.678-.078l.91.858a1.94 1.94 0 0 1 .078 2.678z"/></svg></svg><svg width="17" height="18" xmlns="http://www.w3.org/2000/svg" xmlns:xlink="http://www.w3.org/1999/xlink" xmlns:svgjs="http://svgjs.com/svgjs" viewBox="0 0.03 17 17.941" fill="#fff3c0" opacity=".878" x="1052" y="1724"><svg xmlns="http://www.w3.org/2000/svg" xmlns:xlink="http://www.w3.org/1999/xlink" width="17" height="18" viewBox="0.774 0.25 16.16 17.054"><path paint-order="stroke fill markers" fill-rule="evenodd" d="M13.71.846L1.28 14.133a1.916 1.916 0 0 0 .078 2.678l.547.494a1.89 1.89 0 0 1-.079-2.678L14.256 1.34a1.89 1.89 0 0 1 2.678-.078l-.546-.494a1.89 1.89 0 0 0-2.678.078z"/></svg></svg><svg width="18" height="18" xmlns="http://www.w3.org/2000/svg" xmlns:xlink="http://www.w3.org/1999/xlink" xmlns:svgjs="http://svgjs.com/svgjs" viewBox="0.477 0 17.046 18" fill="#f29e25" x="1052" y="1724"><svg xmlns="http://www.w3.org/2000/svg" xmlns:xlink="http://www.w3.org/1999/xlink" width="18" height="18" viewBox="0.944 0.378 16.151 17.054"><path paint-order="stroke fill markers" fill-rule="evenodd" d="M16.596 3.55L4.168 16.837a1.89 1.89 0 0 1-2.678.078l-.546-.494c.754.702 1.95.676 2.678-.078L16.05 3.056a1.916 1.916 0 0 0-.078-2.678l.546.494c.728.728.78 1.924.078 2.678z"/></svg></svg><svg width="18" height="19" xmlns="http://www.w3.org/2000/svg" xmlns:xlink="http://www.w3.org/1999/xlink" xmlns:svgjs="http://svgjs.com/svgjs" viewBox="0 0.066 18 18.868" fill="none" stroke-miterlimit="100" stroke-linecap="round" stroke="rgba(71, 71, 71, 0.3)" x="1052" y="1723"><svg xmlns="http://www.w3.org/2000/svg" width="18" height="19" viewBox="0.4 0.886 17.111 17.936"><path paint-order="stroke fill markers" d="M17.012 4.94L4.584 18.227a1.89 1.89 0 0 1-2.678.078l-.91-.858a1.89 1.89 0 0 1-.079-2.678L13.346 1.482a1.89 1.89 0 0 1 2.678-.078l.91.858a1.94 1.94 0 0 1 .078 2.678z"/></svg></svg></svg></svg>