<svg width="270" height="220" xmlns="http://www.w3.org/2000/svg" xmlns:xlink="http://www.w3.org/1999/xlink" xmlns:svgjs="http://svgjs.com/svgjs" viewBox="426 1521 270 220"><svg width="270" height="0" xmlns="http://www.w3.org/2000/svg" xmlns:xlink="http://www.w3.org/1999/xlink" xmlns:svgjs="http://svgjs.com/svgjs" fill="#fff" x="426" y="1741"><svg xmlns="http://www.w3.org/2000/svg" xmlns:xlink="http://www.w3.org/1999/xlink" width="270" height="0"><path paint-order="stroke fill markers" fill-rule="evenodd" d="M269.33.824H0h269.33z"/></svg></svg><svg width="201" height="144" xmlns="http://www.w3.org/2000/svg" xmlns:xlink="http://www.w3.org/1999/xlink" xmlns:svgjs="http://svgjs.com/svgjs" viewBox="453 1521 201 144" x="453" y="1521"><svg width="201" height="0" xmlns="http://www.w3.org/2000/svg" xmlns:xlink="http://www.w3.org/1999/xlink" xmlns:svgjs="http://svgjs.com/svgjs" fill="none" stroke-miterlimit="100" stroke-linecap="round" stroke="rgba(71, 71, 71, 0.3)" stroke-width="6" x="453" y="1664"><svg xmlns="http://www.w3.org/2000/svg" xmlns:xlink="http://www.w3.org/1999/xlink" width="201" height="0"><path paint-order="stroke fill markers" d="M.148.984h0"/></svg></svg><svg width="94" height="95" xmlns="http://www.w3.org/2000/svg" xmlns:xlink="http://www.w3.org/1999/xlink" xmlns:svgjs="http://svgjs.com/svgjs" viewBox="464 1570 94 95" x="464" y="1570"><svg width="66" height="37" xmlns="http://www.w3.org/2000/svg" xmlns:xlink="http://www.w3.org/1999/xlink" xmlns:svgjs="http://svgjs.com/svgjs" viewBox="0.125 0 65.75 37" fill="none" stroke-miterlimit="100" stroke-linecap="round" stroke="rgba(71, 71, 71, 0.3)" stroke-width="6" x="478" y="1570"><svg xmlns="http://www.w3.org/2000/svg" xmlns:xlink="http://www.w3.org/1999/xlink" width="66" height="37" viewBox="0.843 0.772 64.181 36.117"><path paint-order="stroke fill markers" d="M.843 36.674V14.777C.843 7.047 7.118.772 14.848.772h36.17c7.73 0 14.006 6.275 14.006 14.005V36.89L.843 36.674"/></svg></svg><svg width="18" height="53" xmlns="http://www.w3.org/2000/svg" xmlns:xlink="http://www.w3.org/1999/xlink" xmlns:svgjs="http://svgjs.com/svgjs" viewBox="0.052 0 17.896 53" fill="none" stroke-miterlimit="100" stroke-linecap="round" stroke="rgba(71, 71, 71, 0.3)" stroke-width="6" x="540" y="1606"><svg xmlns="http://www.w3.org/2000/svg" xmlns:xlink="http://www.w3.org/1999/xlink" width="18" height="53" viewBox="0.035 0.674 17.48 51.765"><path paint-order="stroke fill markers" d="M17.514 52.44H.034V4.982c0-2.37 1.94-4.31 4.31-4.31h8.86c2.371 0 4.31 1.94 4.31 4.31v47.456z"/></svg></svg><svg width="11" height="7" xmlns="http://www.w3.org/2000/svg" xmlns:xlink="http://www.w3.org/1999/xlink" xmlns:svgjs="http://svgjs.com/svgjs" viewBox="0 0.063 11 6.875" fill="none" stroke-miterlimit="100" stroke-linecap="round" stroke="rgba(71, 71, 71, 0.3)" stroke-width="6" x="540" y="1658"><svg xmlns="http://www.w3.org/2000/svg" xmlns:xlink="http://www.w3.org/1999/xlink" width="11" height="7" viewBox="0.035 0.439 10.342 6.464"><path paint-order="stroke fill markers" d="M.035.44h10.342v6.463H.035V.439z"/></svg></svg><svg width="11" height="7" xmlns="http://www.w3.org/2000/svg" xmlns:xlink="http://www.w3.org/1999/xlink" xmlns:svgjs="http://svgjs.com/svgjs" viewBox="0 0.063 11 6.875" fill="none" stroke-miterlimit="100" stroke-linecap="round" stroke="rgba(71, 71, 71, 0.3)" stroke-width="6" x="471" y="1658"><svg xmlns="http://www.w3.org/2000/svg" xmlns:xlink="http://www.w3.org/1999/xlink" width="11" height="7" viewBox="0.355 0.439 10.342 6.464"><path paint-order="stroke fill markers" d="M.355.44h10.343v6.463H.355V.439z"/></svg></svg><svg width="18" height="53" xmlns="http://www.w3.org/2000/svg" xmlns:xlink="http://www.w3.org/1999/xlink" xmlns:svgjs="http://svgjs.com/svgjs" viewBox="0.052 0 17.896 53" fill="none" stroke-miterlimit="100" stroke-linecap="round" stroke="rgba(71, 71, 71, 0.3)" stroke-width="6" x="464" y="1606"><svg xmlns="http://www.w3.org/2000/svg" xmlns:xlink="http://www.w3.org/1999/xlink" width="18" height="53" viewBox="0.245 0.674 17.48 51.765"><path paint-order="stroke fill markers" d="M17.725 52.44H.245V4.982c0-2.37 1.94-4.31 4.31-4.31h8.86c2.37 0 4.31 1.94 4.31 4.31v47.456z"/></svg></svg><svg width="60" height="23" xmlns="http://www.w3.org/2000/svg" xmlns:xlink="http://www.w3.org/1999/xlink" xmlns:svgjs="http://svgjs.com/svgjs" viewBox="0 0.335 60 22.33" fill="none" stroke-miterlimit="100" stroke-linecap="round" stroke="rgba(71, 71, 71, 0.3)" stroke-width="6" x="481" y="1622"><svg xmlns="http://www.w3.org/2000/svg" xmlns:xlink="http://www.w3.org/1999/xlink" width="60" height="23" viewBox="0.805 0.86 58.256 21.681"><path paint-order="stroke fill markers" d="M.805 22.542V5.87A5 5 0 0 1 5.815.86h48.237a5 5 0 0 1 5.01 5.01v16.672H.805z"/></svg></svg><svg width="60" height="13" xmlns="http://www.w3.org/2000/svg" xmlns:xlink="http://www.w3.org/1999/xlink" xmlns:svgjs="http://svgjs.com/svgjs" viewBox="0 0.159 60 12.683" fill="none" stroke-miterlimit="100" stroke-linecap="round" stroke="rgba(71, 71, 71, 0.3)" stroke-width="6" x="481" y="1644"><svg xmlns="http://www.w3.org/2000/svg" xmlns:xlink="http://www.w3.org/1999/xlink" width="60" height="13" viewBox="0.805 0.542 58.229 12.308"><path paint-order="stroke fill markers" d="M.805.542h58.23V12.85H.805V.542z"/></svg></svg><svg width="5" height="5" xmlns="http://www.w3.org/2000/svg" xmlns:xlink="http://www.w3.org/1999/xlink" xmlns:svgjs="http://svgjs.com/svgjs" fill="none" stroke-miterlimit="100" stroke-linecap="round" stroke="rgba(71, 71, 71, 0.3)" stroke-width="6" x="508" y="1595"><svg xmlns="http://www.w3.org/2000/svg" xmlns:xlink="http://www.w3.org/1999/xlink" width="5" height="5" viewBox="0.873 0.658 4.094 4.094"><path paint-order="stroke fill markers" d="M2.92 4.752A2.045 2.045 0 0 1 .873 2.705c0-1.132.915-2.047 2.047-2.047 1.132 0 2.047.915 2.047 2.047A2.045 2.045 0 0 1 2.92 4.752z"/></svg></svg></svg><svg width="39" height="29" xmlns="http://www.w3.org/2000/svg" xmlns:xlink="http://www.w3.org/1999/xlink" xmlns:svgjs="http://svgjs.com/svgjs" viewBox="0 0.234 39 28.533" fill="none" stroke-miterlimit="100" stroke-linecap="round" stroke="rgba(71, 71, 71, 0.3)" stroke-width="6" x="540" y="1521"><svg xmlns="http://www.w3.org/2000/svg" xmlns:xlink="http://www.w3.org/1999/xlink" width="39" height="29" viewBox="0.304 0.7 38.434 28.118"><path paint-order="stroke fill markers" d="M.304.7h38.433v28.118H.304V.7z"/></svg></svg><svg width="31" height="22" xmlns="http://www.w3.org/2000/svg" xmlns:xlink="http://www.w3.org/1999/xlink" xmlns:svgjs="http://svgjs.com/svgjs" viewBox="0 0.667 31 20.667" fill="none" stroke-miterlimit="100" stroke-linecap="round" stroke="rgba(71, 71, 71, 0.3)" stroke-width="6" x="544" y="1525"><svg xmlns="http://www.w3.org/2000/svg" xmlns:xlink="http://www.w3.org/1999/xlink" width="31" height="22" viewBox="0.048 0.444 30.946 20.631"><path paint-order="stroke fill markers" d="M.048.444h30.946v20.63H.048V.444z"/></svg></svg><svg width="11" height="9" xmlns="http://www.w3.org/2000/svg" xmlns:xlink="http://www.w3.org/1999/xlink" xmlns:svgjs="http://svgjs.com/svgjs" viewBox="0.317 0 10.367 9" fill="none" stroke-miterlimit="100" stroke-linecap="round" stroke="rgba(71, 71, 71, 0.3)" stroke-width="6" x="549" y="1533"><svg xmlns="http://www.w3.org/2000/svg" xmlns:xlink="http://www.w3.org/1999/xlink" width="11" height="9" viewBox="0.623 0.443 9.804 8.511"><path paint-order="stroke fill markers" d="M.623 8.954L5.525.443l4.901 8.51H.623z"/></svg></svg><svg width="10" height="10" xmlns="http://www.w3.org/2000/svg" xmlns:xlink="http://www.w3.org/1999/xlink" xmlns:svgjs="http://svgjs.com/svgjs" viewBox="0.462 0 9.076 10" fill="none" stroke-miterlimit="100" stroke-linecap="round" stroke="rgba(71, 71, 71, 0.3)" stroke-width="6" x="556" y="1532"><svg xmlns="http://www.w3.org/2000/svg" xmlns:xlink="http://www.w3.org/1999/xlink" width="10" height="10" viewBox="0.975 0.042 8.996 9.912"><path paint-order="stroke fill markers" d="M.975 5.698L4.235.042 9.97 9.954H3.426L.976 5.698"/></svg></svg><svg width="6" height="5" xmlns="http://www.w3.org/2000/svg" xmlns:xlink="http://www.w3.org/1999/xlink" xmlns:svgjs="http://svgjs.com/svgjs" viewBox="0.5 0 5 5" fill="none" stroke-miterlimit="100" stroke-linecap="round" stroke="rgba(71, 71, 71, 0.3)" stroke-width="6" x="565" y="1529"><svg xmlns="http://www.w3.org/2000/svg" xmlns:xlink="http://www.w3.org/1999/xlink" width="6" height="5" viewBox="0.971 0.08 4.363 4.363"><path paint-order="stroke fill markers" d="M3.153 4.443A2.18 2.18 0 0 1 .97 2.26 2.18 2.18 0 0 1 3.153.08 2.18 2.18 0 0 1 5.334 2.26a2.18 2.18 0 0 1-2.181 2.182z"/></svg></svg><svg width="23" height="11" xmlns="http://www.w3.org/2000/svg" xmlns:xlink="http://www.w3.org/1999/xlink" xmlns:svgjs="http://svgjs.com/svgjs" viewBox="0.216 0 22.569 11" fill="none" stroke-miterlimit="100" stroke-linecap="round" stroke="rgba(71, 71, 71, 0.3)" stroke-width="6" x="624" y="1557"><svg xmlns="http://www.w3.org/2000/svg" xmlns:xlink="http://www.w3.org/1999/xlink" width="23" height="11" viewBox="0.766 0.359 21.385 10.423"><path paint-order="stroke fill markers" d="M22.15.36H.767v10.422h21.385V.36"/></svg></svg><svg width="22" height="0" xmlns="http://www.w3.org/2000/svg" xmlns:xlink="http://www.w3.org/1999/xlink" xmlns:svgjs="http://svgjs.com/svgjs" fill="none" stroke-miterlimit="100" stroke-linecap="round" stroke="rgba(71, 71, 71, 0.3)" stroke-width="6" x="603" y="1567"><svg xmlns="http://www.w3.org/2000/svg" xmlns:xlink="http://www.w3.org/1999/xlink" width="22" height="0"><path paint-order="stroke fill markers" d="M.408.782h0"/></svg></svg><svg width="9" height="0" xmlns="http://www.w3.org/2000/svg" xmlns:xlink="http://www.w3.org/1999/xlink" xmlns:svgjs="http://svgjs.com/svgjs" fill="none" stroke-miterlimit="100" stroke-linecap="round" stroke="rgba(71, 71, 71, 0.3)" stroke-width="6" x="616" y="1557"><svg xmlns="http://www.w3.org/2000/svg" xmlns:xlink="http://www.w3.org/1999/xlink" width="9" height="0"><path paint-order="stroke fill markers" d="M8.766.36H.606h8.16"/></svg></svg><svg width="22" height="12" xmlns="http://www.w3.org/2000/svg" xmlns:xlink="http://www.w3.org/1999/xlink" xmlns:svgjs="http://svgjs.com/svgjs" viewBox="0 0.632 22 10.737" fill="none" stroke-miterlimit="100" stroke-linecap="round" stroke="rgba(71, 71, 71, 0.3)" stroke-width="6" x="614" y="1567"><svg xmlns="http://www.w3.org/2000/svg" xmlns:xlink="http://www.w3.org/1999/xlink" width="22" height="12" viewBox="0.1 0.782 21.358 10.423"><path paint-order="stroke fill markers" d="M.1.782h21.358v10.424H.1V.782z"/></svg></svg><svg width="19" height="11" xmlns="http://www.w3.org/2000/svg" xmlns:xlink="http://www.w3.org/1999/xlink" xmlns:svgjs="http://svgjs.com/svgjs" viewBox="0 0.013 19 10.974" fill="none" stroke-miterlimit="100" stroke-linecap="round" stroke="rgba(71, 71, 71, 0.3)" stroke-width="6" x="624" y="1578"><svg xmlns="http://www.w3.org/2000/svg" xmlns:xlink="http://www.w3.org/1999/xlink" width="19" height="11" viewBox="0.766 0.259 18.045 10.423"><path paint-order="stroke fill markers" d="M18.811.26H.766v10.422h6.922L18.81.26"/></svg></svg><svg width="22" height="11" xmlns="http://www.w3.org/2000/svg" xmlns:xlink="http://www.w3.org/1999/xlink" xmlns:svgjs="http://svgjs.com/svgjs" viewBox="0 0.132 22 10.736" fill="none" stroke-miterlimit="100" stroke-linecap="round" stroke="rgba(71, 71, 71, 0.3)" stroke-width="6" x="603" y="1578"><svg xmlns="http://www.w3.org/2000/svg" xmlns:xlink="http://www.w3.org/1999/xlink" width="22" height="11" viewBox="0.408 0.232 21.358 10.423"><path paint-order="stroke fill markers" d="M.408.232h21.358v10.423H.408V.232z"/></svg></svg></svg><svg width="85" height="108" xmlns="http://www.w3.org/2000/svg" xmlns:xlink="http://www.w3.org/1999/xlink" xmlns:svgjs="http://svgjs.com/svgjs" viewBox="546 1558 85 108" x="546" y="1558"><svg width="23" height="51" xmlns="http://www.w3.org/2000/svg" xmlns:xlink="http://www.w3.org/1999/xlink" xmlns:svgjs="http://svgjs.com/svgjs" viewBox="0.006 0 22.988 51" fill="#efab59" x="608" y="1582"><svg xmlns="http://www.w3.org/2000/svg" xmlns:xlink="http://www.w3.org/1999/xlink" width="23" height="51" viewBox="0.364 0.084 22.617 50.176"><path paint-order="stroke fill markers" fill-rule="evenodd" d="M8.013.084H.363L1.71 7.032l5.764-.753c3.42 0 6.464 1.615 8.376 4.443 1.913 2.828 2.29 6.276 1.024 9.454L8.282 41.13l1.75 9.13 11.851-29.6C25.843 10.777 18.598.085 8.013.085z"/></svg></svg><svg width="14" height="10" xmlns="http://www.w3.org/2000/svg" xmlns:xlink="http://www.w3.org/1999/xlink" xmlns:svgjs="http://svgjs.com/svgjs" viewBox="0 0.319 14 9.362" fill="#fb9437" x="609" y="1582"><svg xmlns="http://www.w3.org/2000/svg" xmlns:xlink="http://www.w3.org/1999/xlink" width="14" height="10" viewBox="0.083 0.176 13.556 9.065"><path paint-order="stroke fill markers" fill-rule="evenodd" d="M.603.218S8.71-.967 13.638 9.241C10.352 7.032 6.69 5.578.71 7.032-.636.084.603.218.603.218z"/></svg></svg><svg width="6" height="18" xmlns="http://www.w3.org/2000/svg" xmlns:xlink="http://www.w3.org/1999/xlink" xmlns:svgjs="http://svgjs.com/svgjs" viewBox="0.445 0 5.11 18" fill="#fb9437" x="615" y="1614"><svg xmlns="http://www.w3.org/2000/svg" xmlns:xlink="http://www.w3.org/1999/xlink" width="6" height="18" viewBox="0.636 0.619 4.794 16.887"><path paint-order="stroke fill markers" fill-rule="evenodd" d="M4.676.619l.754 11.662-2.505 5.225L.635 8.86 4.676.62z"/></svg></svg><svg width="23" height="51" xmlns="http://www.w3.org/2000/svg" xmlns:xlink="http://www.w3.org/1999/xlink" xmlns:svgjs="http://svgjs.com/svgjs" viewBox="0.006 0 22.988 51" fill="none" stroke-miterlimit="100" stroke-linecap="round" stroke="rgba(71, 71, 71, 0.3)" x="608" y="1582"><svg xmlns="http://www.w3.org/2000/svg" xmlns:xlink="http://www.w3.org/1999/xlink" width="23" height="51" viewBox="0.364 0.084 22.617 50.176"><path paint-order="stroke fill markers" d="M8.013.084H.363L1.71 7.032l5.764-.753c3.42 0 6.464 1.615 8.376 4.443 1.913 2.828 2.29 6.276 1.024 9.454L8.282 41.13l1.75 9.13 11.851-29.6C25.843 10.777 18.598.085 8.013.085z"/></svg></svg><svg width="74" height="89" xmlns="http://www.w3.org/2000/svg" xmlns:xlink="http://www.w3.org/1999/xlink" xmlns:svgjs="http://svgjs.com/svgjs" viewBox="0 0.236 74 88.528" fill="#fdba61" x="549" y="1576"><svg xmlns="http://www.w3.org/2000/svg" xmlns:xlink="http://www.w3.org/1999/xlink" width="74" height="89" viewBox="0.026 0.94 73.596 88.044"><path paint-order="stroke fill markers" fill-rule="evenodd" d="M59.983 88.984H13.685c-8.457 0-14.867-6.626-13.466-13.898L14.547.94h44.547l14.329 74.146c1.427 7.272-5.01 13.898-13.44 13.898z"/></svg></svg><svg width="74" height="89" xmlns="http://www.w3.org/2000/svg" xmlns:xlink="http://www.w3.org/1999/xlink" xmlns:svgjs="http://svgjs.com/svgjs" viewBox="0 0.236 74 88.528" fill="#fdba61" x="549" y="1576"><svg xmlns="http://www.w3.org/2000/svg" xmlns:xlink="http://www.w3.org/1999/xlink" width="74" height="89" viewBox="0.026 0.94 73.596 88.044"><path paint-order="stroke fill markers" fill-rule="evenodd" d="M59.983 88.984H13.685c-8.457 0-14.867-6.626-13.466-13.898L14.547.94h44.547l14.329 74.146c1.427 7.272-5.01 13.898-13.44 13.898z"/></svg></svg><svg width="74" height="89" xmlns="http://www.w3.org/2000/svg" xmlns:xlink="http://www.w3.org/1999/xlink" xmlns:svgjs="http://svgjs.com/svgjs" viewBox="0 0.236 74 88.528" fill="#fdba61" x="549" y="1576"><svg xmlns="http://www.w3.org/2000/svg" xmlns:xlink="http://www.w3.org/1999/xlink" width="74" height="89" viewBox="0.026 0.94 73.596 88.044"><path paint-order="stroke fill markers" fill-rule="evenodd" d="M59.983 88.984H13.685c-8.457 0-14.867-6.626-13.466-13.898L14.547.94h44.547l14.329 74.146c1.427 7.272-5.01 13.898-13.44 13.898z"/></svg></svg><svg width="42" height="90" xmlns="http://www.w3.org/2000/svg" xmlns:xlink="http://www.w3.org/1999/xlink" xmlns:svgjs="http://svgjs.com/svgjs" viewBox="0 0.427 42 89.145" fill="#fca649" x="549" y="1576"><svg xmlns="http://www.w3.org/2000/svg" xmlns:xlink="http://www.w3.org/1999/xlink" width="42" height="90" viewBox="-0.001 0.966 41.481 88.044"><path paint-order="stroke fill markers" fill-rule="evenodd" d="M26.882 79.854l2.451-72.208.216-6.68H14.52L.192 75.113c-1.4 7.272 5.01 13.898 13.466 13.898H41.48c-7.783-.027-14.76-4.229-14.598-9.157z"/></svg></svg><svg width="30" height="90" xmlns="http://www.w3.org/2000/svg" xmlns:xlink="http://www.w3.org/1999/xlink" xmlns:svgjs="http://svgjs.com/svgjs" viewBox="0 0.469 30 89.061" fill="#fb9437" x="549" y="1576"><svg xmlns="http://www.w3.org/2000/svg" xmlns:xlink="http://www.w3.org/1999/xlink" width="30" height="90" viewBox="0.026 0.966 29.657 88.044"><path paint-order="stroke fill markers" fill-rule="evenodd" d="M14.817 77.914L23.839.966h-9.292L.22 75.113c-1.4 7.272 5.01 13.898 13.466 13.898h15.999c-8.458-.027-15.568-5.198-14.867-11.097z"/></svg></svg><svg width="46" height="3" xmlns="http://www.w3.org/2000/svg" xmlns:xlink="http://www.w3.org/1999/xlink" xmlns:svgjs="http://svgjs.com/svgjs" viewBox="0 0.619 46 1.762" fill="#ffcb92" opacity=".698" x="563" y="1577"><svg xmlns="http://www.w3.org/2000/svg" xmlns:xlink="http://www.w3.org/1999/xlink" width="46" height="3" viewBox="0.52 0.478 45.005 1.724"><path paint-order="stroke fill markers" fill-rule="evenodd" d="M.52.478h45.005v1.724H.52V.478z"/></svg></svg><svg width="74" height="89" xmlns="http://www.w3.org/2000/svg" xmlns:xlink="http://www.w3.org/1999/xlink" xmlns:svgjs="http://svgjs.com/svgjs" viewBox="0 0.236 74 88.528" fill="none" stroke-miterlimit="100" stroke-linecap="round" stroke="rgba(71, 71, 71, 0.3)" x="549" y="1576"><svg xmlns="http://www.w3.org/2000/svg" xmlns:xlink="http://www.w3.org/1999/xlink" width="74" height="89" viewBox="0.026 0.94 73.596 88.044"><path paint-order="stroke fill markers" d="M59.983 88.984H13.685c-8.457 0-14.867-6.626-13.466-13.898L14.547.94h44.547l14.329 74.146c1.427 7.272-5.01 13.898-13.44 13.898z"/></svg></svg><svg width="46" height="10" xmlns="http://www.w3.org/2000/svg" xmlns:xlink="http://www.w3.org/1999/xlink" xmlns:svgjs="http://svgjs.com/svgjs" viewBox="0 0.278 46 9.444" fill="#8c7b5f" x="563" y="1567"><svg xmlns="http://www.w3.org/2000/svg" xmlns:xlink="http://www.w3.org/1999/xlink" width="46" height="10" viewBox="0.52 0.782 44.601 9.157"><path paint-order="stroke fill markers" fill-rule="evenodd" d="M45.121 9.94c-5.736-5.656-13.6-9.158-22.3-9.158-8.7 0-16.564 3.502-22.3 9.158h44.6z"/></svg></svg><svg width="46" height="10" xmlns="http://www.w3.org/2000/svg" xmlns:xlink="http://www.w3.org/1999/xlink" xmlns:svgjs="http://svgjs.com/svgjs" viewBox="0 0.278 46 9.444" fill="#8c7b5f" x="563" y="1567"><svg xmlns="http://www.w3.org/2000/svg" xmlns:xlink="http://www.w3.org/1999/xlink" width="46" height="10" viewBox="0.52 0.782 44.601 9.157"><path paint-order="stroke fill markers" fill-rule="evenodd" d="M45.121 9.94c-5.736-5.656-13.6-9.158-22.3-9.158-8.7 0-16.564 3.502-22.3 9.158h44.6z"/></svg></svg><svg width="46" height="4" xmlns="http://www.w3.org/2000/svg" xmlns:xlink="http://www.w3.org/1999/xlink" xmlns:svgjs="http://svgjs.com/svgjs" viewBox="0 0.126 46 3.748" fill="#736247" x="563" y="1573"><svg xmlns="http://www.w3.org/2000/svg" xmlns:xlink="http://www.w3.org/1999/xlink" width="46" height="4" viewBox="0.52 0.306 44.601 3.634"><path paint-order="stroke fill markers" fill-rule="evenodd" d="M.52 3.94h44.601c-1.185-.89-2.477-1.67-3.851-2.397L27.184.493a65.802 65.802 0 0 0-10.558.053L4.372 1.57c-1.347.7-2.64 1.508-3.852 2.37z"/></svg></svg><svg width="32" height="5" xmlns="http://www.w3.org/2000/svg" xmlns:xlink="http://www.w3.org/1999/xlink" xmlns:svgjs="http://svgjs.com/svgjs" viewBox="570 1567 32 5" x="570" y="1567"><svg width="32" height="5" xmlns="http://www.w3.org/2000/svg" xmlns:xlink="http://www.w3.org/1999/xlink" xmlns:svgjs="http://svgjs.com/svgjs" viewBox="0 0.235 32 4.53" fill="#fff" x="570" y="1567"><svg xmlns="http://www.w3.org/2000/svg" xmlns:xlink="http://www.w3.org/1999/xlink" width="32" height="5" viewBox="0.469 0.539 30.704 4.346"><path paint-order="stroke fill markers" fill-rule="evenodd" d="M31.173 4.741C31.2 5.496 24.52 3.045 15.82 3.1 7.12 3.045.442 5.496.469 4.74.442 4.095 7.121.486 15.821.54c8.7-.054 15.405 3.555 15.352 4.201z"/></svg></svg></svg><svg width="46" height="10" xmlns="http://www.w3.org/2000/svg" xmlns:xlink="http://www.w3.org/1999/xlink" xmlns:svgjs="http://svgjs.com/svgjs" viewBox="0 0.278 46 9.444" fill="none" stroke-miterlimit="100" stroke-linecap="round" stroke="rgba(71, 71, 71, 0.3)" x="563" y="1567"><svg xmlns="http://www.w3.org/2000/svg" xmlns:xlink="http://www.w3.org/1999/xlink" width="46" height="10" viewBox="0.52 0.782 44.601 9.157"><path paint-order="stroke fill markers" d="M45.121 9.94c-5.736-5.656-13.6-9.158-22.3-9.158-8.7 0-16.564 3.502-22.3 9.158h44.6z"/></svg></svg><svg width="14" height="20" xmlns="http://www.w3.org/2000/svg" xmlns:xlink="http://www.w3.org/1999/xlink" xmlns:svgjs="http://svgjs.com/svgjs" viewBox="0 0.391 14 19.218" fill="#fb9437" x="550" y="1577"><svg xmlns="http://www.w3.org/2000/svg" xmlns:xlink="http://www.w3.org/1999/xlink" width="14" height="20" viewBox="0.021 0.478 13.499 18.53"><path paint-order="stroke fill markers" fill-rule="evenodd" d="M9.965 19.008L.215 2.525C-.323 1.636.323.478 1.373.478H13.52l-3.555 18.53z"/></svg></svg><svg width="15" height="19" xmlns="http://www.w3.org/2000/svg" xmlns:xlink="http://www.w3.org/1999/xlink" xmlns:svgjs="http://svgjs.com/svgjs" viewBox="0.516 0 13.968 19" fill="#fa8128" x="549" y="1577"><svg xmlns="http://www.w3.org/2000/svg" xmlns:xlink="http://www.w3.org/1999/xlink" width="15" height="19" viewBox="0.924 0.451 13.623 18.53"><path paint-order="stroke fill markers" fill-rule="evenodd" d="M11.665.478L10.48 6.62c-.377 1.966-4.525 3.447-5.548 1.697L1.862 2.66c-1.05 0-1.158-1.077-.62-.162l9.75 16.483L14.547.451h-2.882v.027z"/></svg></svg><svg width="14" height="3" xmlns="http://www.w3.org/2000/svg" xmlns:xlink="http://www.w3.org/1999/xlink" xmlns:svgjs="http://svgjs.com/svgjs" viewBox="0 0.605 14 1.79" fill="#ffcb92" opacity=".698" x="550" y="1577"><svg xmlns="http://www.w3.org/2000/svg" xmlns:xlink="http://www.w3.org/1999/xlink" width="14" height="3" viewBox="0.036 0.504 13.484 1.724"><path paint-order="stroke fill markers" fill-rule="evenodd" d="M.215 1.744l.458.485h12.309L13.52.505H1.373C.35.478-.297 1.178.215 1.745z"/></svg></svg><svg width="14" height="20" xmlns="http://www.w3.org/2000/svg" xmlns:xlink="http://www.w3.org/1999/xlink" xmlns:svgjs="http://svgjs.com/svgjs" viewBox="0 0.391 14 19.218" fill="none" stroke-miterlimit="100" stroke-linecap="round" stroke="rgba(71, 71, 71, 0.3)" x="550" y="1577"><svg xmlns="http://www.w3.org/2000/svg" xmlns:xlink="http://www.w3.org/1999/xlink" width="14" height="20" viewBox="0.021 0.478 13.499 18.53"><path paint-order="stroke fill markers" d="M9.965 19.008L.215 2.525C-.323 1.636.323.478 1.373.478H13.52l-3.555 18.53z"/></svg></svg><svg width="14" height="11" xmlns="http://www.w3.org/2000/svg" xmlns:xlink="http://www.w3.org/1999/xlink" xmlns:svgjs="http://svgjs.com/svgjs" viewBox="0 0.264 14 10.472" fill="none" stroke-miterlimit="100" stroke-linecap="round" stroke="rgba(71, 71, 71, 0.3)" x="579" y="1558"><svg xmlns="http://www.w3.org/2000/svg" xmlns:xlink="http://www.w3.org/1999/xlink" width="14" height="11" viewBox="0.249 0.625 13.143 9.831"><path paint-order="stroke fill markers" d="M.25 10.456v-3.26A6.564 6.564 0 0 1 6.82.626s0 0 0 0a6.563 6.563 0 0 1 6.573 6.572v3.259H.249"/></svg></svg><svg width="10" height="51" xmlns="http://www.w3.org/2000/svg" xmlns:xlink="http://www.w3.org/1999/xlink" xmlns:svgjs="http://svgjs.com/svgjs" viewBox="0.656 0 8.689 51" fill="none" stroke-miterlimit="100" stroke-linecap="round" stroke="rgba(71, 71, 71, 0.3)" x="601" y="1590"><svg xmlns="http://www.w3.org/2000/svg" xmlns:xlink="http://www.w3.org/1999/xlink" width="10" height="51" viewBox="0.819 0.487 8.484 49.799"><path paint-order="stroke fill markers" d="M.819.487l8.484 49.8L.819.486"/></svg></svg><svg width="22" height="41" xmlns="http://www.w3.org/2000/svg" xmlns:xlink="http://www.w3.org/1999/xlink" xmlns:svgjs="http://svgjs.com/svgjs" viewBox="0.147 0 21.706 41" fill="#fdba61" opacity=".4" x="546" y="1621"><svg xmlns="http://www.w3.org/2000/svg" xmlns:xlink="http://www.w3.org/1999/xlink" width="22" height="41" viewBox="0.651 0.298 21.26 40.157"><path paint-order="stroke fill markers" fill-rule="evenodd" d="M6.666.325L.85 28.847c-.997 4.821 1.858 9.346 6.571 11.609 8.727-5.495 14.49-14.895 14.49-25.533V.298L6.666.325z"/></svg></svg></svg><svg width="27" height="27" xmlns="http://www.w3.org/2000/svg" xmlns:xlink="http://www.w3.org/1999/xlink" xmlns:svgjs="http://svgjs.com/svgjs" fill="#fb9437" x="491" y="1626"><svg xmlns="http://www.w3.org/2000/svg" xmlns:xlink="http://www.w3.org/1999/xlink" width="27" height="27" viewBox="0.367 0.281 26.502 26.502"><path paint-order="stroke fill markers" fill-rule="evenodd" d="M13.618.281C6.292.281.367 6.206.367 13.532s5.925 13.251 13.25 13.251c7.326 0 13.252-5.925 13.252-13.251V.282H13.618zm5.817 13.251a5.828 5.828 0 0 1-5.817 5.818A5.828 5.828 0 0 1 7.8 13.532a5.828 5.828 0 0 1 5.818-5.817h5.817v5.817z"/></svg></svg><svg width="27" height="27" xmlns="http://www.w3.org/2000/svg" xmlns:xlink="http://www.w3.org/1999/xlink" xmlns:svgjs="http://svgjs.com/svgjs" fill="#fb9437" x="491" y="1626"><svg xmlns="http://www.w3.org/2000/svg" xmlns:xlink="http://www.w3.org/1999/xlink" width="27" height="27" viewBox="0.367 0.281 26.502 26.502"><path paint-order="stroke fill markers" fill-rule="evenodd" d="M13.618.281C6.292.281.367 6.206.367 13.532s5.925 13.251 13.25 13.251c7.326 0 13.252-5.925 13.252-13.251V.282H13.618zm5.817 13.251a5.828 5.828 0 0 1-5.817 5.818A5.828 5.828 0 0 1 7.8 13.532a5.828 5.828 0 0 1 5.818-5.817h5.817v5.817z"/></svg></svg><svg width="27" height="24" xmlns="http://www.w3.org/2000/svg" xmlns:xlink="http://www.w3.org/1999/xlink" xmlns:svgjs="http://svgjs.com/svgjs" viewBox="491 1625 27 24" x="491" y="1625"><svg width="27" height="24" xmlns="http://www.w3.org/2000/svg" xmlns:xlink="http://www.w3.org/1999/xlink" xmlns:svgjs="http://svgjs.com/svgjs" viewBox="0 0.503 27 22.994" fill="#ffcb92" opacity=".698" x="491" y="1625"><svg xmlns="http://www.w3.org/2000/svg" xmlns:xlink="http://www.w3.org/1999/xlink" width="27" height="24" viewBox="0.097 0.742 26.502 22.57"><path paint-order="stroke fill markers" fill-rule="evenodd" d="M1.605 15.825c0-7.326 5.926-13.251 13.252-13.251h11.742V.742H13.35C6.022.742.096 6.668.096 13.993c0 3.636 1.455 6.922 3.825 9.32a13.248 13.248 0 0 1-2.317-7.488z"/></svg></svg></svg><svg width="27" height="27" xmlns="http://www.w3.org/2000/svg" xmlns:xlink="http://www.w3.org/1999/xlink" xmlns:svgjs="http://svgjs.com/svgjs" viewBox="0.055 0 26.891 27" fill="#fa8128" x="491" y="1626"><svg xmlns="http://www.w3.org/2000/svg" xmlns:xlink="http://www.w3.org/1999/xlink" width="27" height="27" viewBox="0.393 0.281 26.448 26.556"><path paint-order="stroke fill markers" fill-rule="evenodd" d="M14.318.281h-1.104 2.99c-.647 0-.917 1.077-1.509 4.605-.242 1.428-2.693 1.374-3.96 2.29-1.48 1.05-2.827 3.394-2.827 5.36l.08-.324c0 .458-.107-.43 0 0a5.798 5.798 0 0 1 5.253-4.47h6.221v5.817c0 2.936-2.181 5.36-5.036 5.764v.053c.727 2.667-1.724 5.172-4.364 4.337C4.972 22.097.932 17.14.447 12.266c-.054.431-.054.889-.054 1.32 0 7.326 5.926 13.251 13.252 13.251 2.181 0 4.255-.539 6.06-1.481.161-.081.296-.162.457-.243a15.36 15.36 0 0 0 1.751-1.185c.135-.108.242-.188.35-.296.027-.027.054-.054.08-.054.109-.108.216-.189.324-.296l.08-.08.324-.324a.595.595 0 0 1 .135-.108c.27-.08.485-.242.538-.485.081-.269.243-.458.404-.646.081-.108.135-.188.216-.296.054-.054.08-.135.135-.189.053-.08.134-.188.188-.27.054-.08.08-.134.135-.215.054-.08.107-.188.161-.269.054-.081.108-.162.135-.242.08-.135.162-.27.216-.404.053-.108.107-.216.188-.35.027-.081.08-.162.108-.243.054-.108.08-.188.134-.296.027-.081.081-.162.108-.243.054-.107.08-.215.135-.323l.08-.242c.054-.108.081-.242.108-.35.027-.081.054-.162.081-.216.054-.161.08-.323.135-.484 0-.028.027-.054.027-.108.054-.189.08-.377.134-.593.027-.054.027-.134.027-.189l.081-.403c0-.081.027-.162.027-.243.027-.134.027-.27.054-.404 0-.08.027-.161.027-.242 0-.135.027-.296.027-.431v-.188c0-.216.027-.432.027-.62V10.92.28H14.318z"/></svg></svg><svg width="27" height="27" xmlns="http://www.w3.org/2000/svg" xmlns:xlink="http://www.w3.org/1999/xlink" xmlns:svgjs="http://svgjs.com/svgjs" fill="none" stroke-miterlimit="100" stroke-linecap="round" stroke="rgba(71, 71, 71, 0.3)" x="491" y="1626"><svg xmlns="http://www.w3.org/2000/svg" xmlns:xlink="http://www.w3.org/1999/xlink" width="27" height="27" viewBox="0.367 0.281 26.502 26.502"><path paint-order="stroke fill markers" d="M13.618.281C6.292.281.367 6.206.367 13.532c0 0 0 0 0 0 0 7.326 5.925 13.251 13.25 13.251 0 0 0 0 0 0 7.326 0 13.252-5.925 13.252-13.251V.282H13.618zm5.817 13.251a5.828 5.828 0 0 1-5.817 5.818s0 0 0 0A5.828 5.828 0 0 1 7.8 13.532s0 0 0 0a5.828 5.828 0 0 1 5.818-5.817h5.817v5.817z"/></svg></svg><svg width="58" height="45" xmlns="http://www.w3.org/2000/svg" xmlns:xlink="http://www.w3.org/1999/xlink" xmlns:svgjs="http://svgjs.com/svgjs" viewBox="0 0.18 58 44.64" fill="#fdba61" x="509" y="1620"><svg xmlns="http://www.w3.org/2000/svg" xmlns:xlink="http://www.w3.org/1999/xlink" width="58" height="45" viewBox="0.331 0.975 57.179 44.008"><path paint-order="stroke fill markers" fill-rule="evenodd" d="M28.907 44.984C13.124 44.984.33 32.19.33 16.408V.975H57.51v15.433c0 15.783-12.82 28.576-28.603 28.576z"/></svg></svg><svg width="9" height="31" xmlns="http://www.w3.org/2000/svg" xmlns:xlink="http://www.w3.org/1999/xlink" xmlns:svgjs="http://svgjs.com/svgjs" viewBox="548 1620 9 31" x="548" y="1620"><svg width="9" height="15" xmlns="http://www.w3.org/2000/svg" xmlns:xlink="http://www.w3.org/1999/xlink" xmlns:svgjs="http://svgjs.com/svgjs" viewBox="0 0.438 9 14.123" fill="#a9a9a9" stroke-miterlimit="100" stroke-linecap="round" stroke="#fb9437" stroke-width="6" x="548" y="1636"><svg xmlns="http://www.w3.org/2000/svg" xmlns:xlink="http://www.w3.org/1999/xlink" width="9" height="15" viewBox="0.088 0.865 8.753 13.736"><path paint-order="stroke fill markers" fill-rule="evenodd" d="M8.84 14.602H.089V5.794L4.478.865l4.363 4.93v8.807z"/></svg></svg><svg width="0" height="16" xmlns="http://www.w3.org/2000/svg" xmlns:xlink="http://www.w3.org/1999/xlink" xmlns:svgjs="http://svgjs.com/svgjs" fill="none" stroke-miterlimit="100" stroke-linecap="round" stroke="#fb9437" stroke-width="6" x="552" y="1620"><svg xmlns="http://www.w3.org/2000/svg" xmlns:xlink="http://www.w3.org/1999/xlink" width="0" height="16"><path paint-order="stroke fill markers" d="M.478.975v0"/></svg></svg></svg><svg width="38" height="45" xmlns="http://www.w3.org/2000/svg" xmlns:xlink="http://www.w3.org/1999/xlink" xmlns:svgjs="http://svgjs.com/svgjs" viewBox="0.204 0 37.592 45" fill="#fca649" x="509" y="1620"><svg xmlns="http://www.w3.org/2000/svg" xmlns:xlink="http://www.w3.org/1999/xlink" width="38" height="45" viewBox="0.304 0.975 36.764 44.008"><path paint-order="stroke fill markers" fill-rule="evenodd" d="M16.68 16.408V.975H.303v15.433c0 15.782 12.793 28.576 28.576 28.576 2.855 0 5.602-.404 8.188-1.185-11.77-3.529-20.389-14.463-20.389-27.391z"/></svg></svg><svg width="34" height="45" xmlns="http://www.w3.org/2000/svg" xmlns:xlink="http://www.w3.org/1999/xlink" xmlns:svgjs="http://svgjs.com/svgjs" viewBox="0.201 0 33.599 45" fill="#fb9437" x="509" y="1620"><svg xmlns="http://www.w3.org/2000/svg" xmlns:xlink="http://www.w3.org/1999/xlink" width="34" height="45" viewBox="0.331 0.975 32.858 44.008"><path paint-order="stroke fill markers" fill-rule="evenodd" d="M8.896 16.408V.975H.33v15.433c0 15.782 12.793 28.576 28.576 28.576 1.454 0 2.882-.108 4.282-.323C19.453 42.614 8.896 30.736 8.896 16.408z"/></svg></svg><svg width="58" height="3" xmlns="http://www.w3.org/2000/svg" xmlns:xlink="http://www.w3.org/1999/xlink" xmlns:svgjs="http://svgjs.com/svgjs" viewBox="0 0.53 58 1.94" fill="#ffcb92" opacity=".698" x="509" y="1621"><svg xmlns="http://www.w3.org/2000/svg" xmlns:xlink="http://www.w3.org/1999/xlink" width="58" height="3" viewBox="0.331 0.19 57.179 1.912"><path paint-order="stroke fill markers" fill-rule="evenodd" d="M.33.19h57.18v1.913H.33V.19z"/></svg></svg><svg width="58" height="45" xmlns="http://www.w3.org/2000/svg" xmlns:xlink="http://www.w3.org/1999/xlink" xmlns:svgjs="http://svgjs.com/svgjs" viewBox="0 0.18 58 44.64" fill="none" stroke-miterlimit="100" stroke-linecap="round" stroke="rgba(71, 71, 71, 0.3)" x="509" y="1620"><svg xmlns="http://www.w3.org/2000/svg" xmlns:xlink="http://www.w3.org/1999/xlink" width="58" height="45" viewBox="0.331 0.975 57.179 44.008"><path paint-order="stroke fill markers" d="M28.907 44.984s0 0 0 0C13.124 44.984.33 32.19.33 16.408V.975H57.51v15.433c0 15.783-12.82 28.576-28.603 28.576z"/></svg></svg><svg width="10" height="14" xmlns="http://www.w3.org/2000/svg" xmlns:xlink="http://www.w3.org/1999/xlink" xmlns:svgjs="http://svgjs.com/svgjs" viewBox="0.539 0 8.922 14" fill="#d51c29" x="546" y="1635"><svg xmlns="http://www.w3.org/2000/svg" xmlns:xlink="http://www.w3.org/1999/xlink" width="10" height="14" viewBox="0.472 0.25 8.753 13.736"><path paint-order="stroke fill markers" fill-rule="evenodd" d="M9.225 13.986H.472V5.178L4.862.25l4.363 4.928v8.808z"/></svg></svg><svg width="10" height="14" xmlns="http://www.w3.org/2000/svg" xmlns:xlink="http://www.w3.org/1999/xlink" xmlns:svgjs="http://svgjs.com/svgjs" viewBox="0.539 0 8.922 14" fill="#6ab36f" stroke-miterlimit="100" stroke-linecap="round" stroke="rgba(71, 71, 71, 0.3)" stroke-width="6" x="546" y="1635"><svg xmlns="http://www.w3.org/2000/svg" xmlns:xlink="http://www.w3.org/1999/xlink" width="10" height="14" viewBox="0.472 0.25 8.753 13.736"><path paint-order="stroke fill markers" fill-rule="evenodd" d="M9.225 13.986H.472V5.178L4.862.25l4.363 4.928v8.808z"/></svg></svg><svg width="7" height="14" xmlns="http://www.w3.org/2000/svg" xmlns:xlink="http://www.w3.org/1999/xlink" xmlns:svgjs="http://svgjs.com/svgjs" viewBox="0.494 0 6.012 14" fill="#88ce8e" x="546" y="1635"><svg xmlns="http://www.w3.org/2000/svg" xmlns:xlink="http://www.w3.org/1999/xlink" width="7" height="14" viewBox="0.472 0.25 5.898 13.736"><path paint-order="stroke fill markers" fill-rule="evenodd" d="M2.088 6.794l4.282-4.82L4.862.25.472 5.178v8.808h1.616V6.794z"/></svg></svg><svg width="0" height="15" xmlns="http://www.w3.org/2000/svg" xmlns:xlink="http://www.w3.org/1999/xlink" xmlns:svgjs="http://svgjs.com/svgjs" fill="none" stroke-miterlimit="100" stroke-linecap="round" stroke="rgba(71, 71, 71, 0.3)" x="550" y="1620"><svg xmlns="http://www.w3.org/2000/svg" xmlns:xlink="http://www.w3.org/1999/xlink" width="0" height="15"><path paint-order="stroke fill markers" d="M.862.975v0"/></svg></svg><svg width="10" height="39" xmlns="http://www.w3.org/2000/svg" xmlns:xlink="http://www.w3.org/1999/xlink" xmlns:svgjs="http://svgjs.com/svgjs" viewBox="0.707 0 8.585 39" fill="none" stroke-miterlimit="100" stroke-linecap="round" stroke="rgba(71, 71, 71, 0.3)" x="531" y="1576"><svg xmlns="http://www.w3.org/2000/svg" xmlns:xlink="http://www.w3.org/1999/xlink" width="10" height="39" viewBox="0.818 0.94 8.289 37.653"><path paint-order="stroke fill markers" d="M4.106.94C2.005 3.956.766 8.939.82 11.713c.215 10.234 7.083 10.261 8.215 17.264.296 1.858-.297 4.848-2.128 9.615L4.106.94"/></svg></svg><svg width="8" height="29" xmlns="http://www.w3.org/2000/svg" xmlns:xlink="http://www.w3.org/1999/xlink" xmlns:svgjs="http://svgjs.com/svgjs" viewBox="0.241 0 7.518 29" fill="none" stroke-miterlimit="100" stroke-linecap="round" stroke="rgba(71, 71, 71, 0.3)" x="542" y="1586"><svg xmlns="http://www.w3.org/2000/svg" xmlns:xlink="http://www.w3.org/1999/xlink" width="8" height="29" viewBox="0.398 0.204 7.366 28.415"><path paint-order="stroke fill markers" d="M1.159.204c-.781 1.455-2.074 4.93 2.8 10.72C9.24 17.172 8 23.582 6.304 28.619L1.159.204"/></svg></svg><svg width="9" height="29" xmlns="http://www.w3.org/2000/svg" xmlns:xlink="http://www.w3.org/1999/xlink" xmlns:svgjs="http://svgjs.com/svgjs" viewBox="0.006 0 8.987 29" fill="none" stroke-miterlimit="100" stroke-linecap="round" stroke="rgba(71, 71, 71, 0.3)" x="521" y="1588"><svg xmlns="http://www.w3.org/2000/svg" xmlns:xlink="http://www.w3.org/1999/xlink" width="9" height="29" viewBox="0.063 0.844 8.605 27.768"><path paint-order="stroke fill markers" d="M.99.844c-2.855 6.84 1.373 11.393 6.086 16.321 3.69 3.879-.027 10.154-1.239 11.447L.99.844"/></svg></svg><svg width="0" height="11" xmlns="http://www.w3.org/2000/svg" xmlns:xlink="http://www.w3.org/1999/xlink" xmlns:svgjs="http://svgjs.com/svgjs" fill="none" stroke-miterlimit="100" stroke-linecap="round" stroke="rgba(71, 71, 71, 0.3)" x="561" y="1626"><svg xmlns="http://www.w3.org/2000/svg" xmlns:xlink="http://www.w3.org/1999/xlink" width="0" height="11"><path paint-order="stroke fill markers" d="M.366.012v0"/></svg></svg><svg width="10" height="14" xmlns="http://www.w3.org/2000/svg" xmlns:xlink="http://www.w3.org/1999/xlink" xmlns:svgjs="http://svgjs.com/svgjs" viewBox="0.539 0 8.922 14" fill="none" stroke-miterlimit="100" stroke-linecap="round" stroke="rgba(71, 71, 71, 0.3)" stroke-width="6" x="546" y="1635"><svg xmlns="http://www.w3.org/2000/svg" width="10" height="14" viewBox="0.472 0.25 8.753 13.736"><path paint-order="stroke fill markers" d="M9.225 13.986H.472V5.178L4.862.25l4.363 4.928v8.808z"/></svg></svg></svg>